<svg width="68" height="50" viewBox="0 0 68 50" fill="none" xmlns="http://www.w3.org/2000/svg">
<path d="M15.2712 38.3277C13.3023 38.3277 11.6935 39.9468 11.6935 41.9285C11.6935 43.9101 13.3023 45.5292 15.2712 45.5292C17.2401 45.5292 18.8489 43.9101 18.8489 41.9285C18.8489 39.9468 17.2401 38.3277 15.2712 38.3277ZM15.2712 43.1126C14.6229 43.1126 14.0946 42.581 14.0946 41.9285C14.0946 41.276 14.6229 40.7443 15.2712 40.7443C15.9195 40.7443 16.4477 41.276 16.4477 41.9285C16.4477 42.581 15.9195 43.1126 15.2712 43.1126ZM54.6017 38.3277C52.6328 38.3277 51.024 39.9468 51.024 41.9285C51.024 43.9101 52.6328 45.5292 54.6017 45.5292C56.5706 45.5292 58.1794 43.9101 58.1794 41.9285C58.1794 39.9468 56.5706 38.3277 54.6017 38.3277ZM54.6017 43.1126C53.9534 43.1126 53.4251 42.581 53.4251 41.9285C53.4251 41.276 53.9534 40.7443 54.6017 40.7443C55.25 40.7443 55.7782 41.276 55.7782 41.9285C55.7782 42.581 55.25 43.1126 54.6017 43.1126ZM67.1116 27.4045L40.8192 0.942484C40.2189 0.338328 39.3785 0 38.5381 0H3.21751C1.44068 0 0 1.44998 0 3.23828V39.8985C0 41.6868 1.44068 43.1609 3.21751 43.1609H7.37147C7.94774 47.0275 11.2613 50 15.2472 50C19.233 50 22.5466 47.0275 23.1229 43.1609H46.678C47.2542 47.0275 50.5678 50 54.5537 50C58.5395 50 61.8531 47.0275 62.4294 43.1609H64.7825C66.5593 43.1609 68 41.711 68 39.8985V29.7003C68 28.8304 67.6638 28.0087 67.0636 27.4045H67.1116ZM63.1257 26.8004L41.2994 22.088C40.9153 22.0155 40.6511 21.653 40.6511 21.2663V10.8507C40.6511 10.3915 41.0353 10.0048 41.4915 10.0048H46.4619L63.1257 26.7762V26.8004ZM15.2712 47.5834C12.1737 47.5834 9.67655 45.0459 9.67655 41.9526C9.67655 38.8594 12.1977 36.3219 15.2712 36.3219C18.3446 36.3219 20.8658 38.8594 20.8658 41.9526C20.8658 45.0459 18.3446 47.5834 15.2712 47.5834ZM15.2712 33.8811C11.2613 33.8811 7.97175 36.8536 7.39548 40.7202H3.24153C2.78531 40.7202 2.42514 40.3577 2.42514 39.8743V3.23828C2.42514 2.77912 2.78531 2.41663 3.24153 2.41663H33.952V40.7443H23.1469C22.5706 36.8777 19.2571 33.9053 15.2712 33.9053V33.8811ZM54.6017 47.5834C51.5042 47.5834 49.0071 45.0459 49.0071 41.9526C49.0071 38.8594 51.5282 36.3219 54.6017 36.3219C57.6751 36.3219 60.1963 38.8594 60.1963 41.9526C60.1963 45.0459 57.6751 47.5834 54.6017 47.5834ZM64.8305 40.7202H62.4774C61.9011 36.8536 58.5876 33.8811 54.6017 33.8811C50.6158 33.8811 47.3023 36.8536 46.726 40.7202H36.3531V2.41663H38.5621C38.7782 2.41663 38.9943 2.51329 39.1384 2.65829L44.0607 7.61237H41.4915C39.7147 7.61237 38.25 9.06235 38.25 10.8748V21.2905C38.25 22.813 39.3305 24.1421 40.7952 24.4804L65.6469 29.8453V39.9227C65.6469 40.3818 65.2867 40.7685 64.8305 40.7685V40.7202Z" fill="#004539"/>
</svg>
