<svg width="65" height="50" viewBox="0 0 65 50" fill="none" xmlns="http://www.w3.org/2000/svg">
<path d="M15.9063 38.3765C13.9239 38.3765 12.3191 39.9765 12.3191 41.9529C12.3191 43.9294 13.9239 45.5294 15.9063 45.5294C17.8887 45.5294 19.4935 43.9294 19.4935 41.9529C19.4935 39.9765 17.8887 38.3765 15.9063 38.3765ZM15.9063 43.1765C15.2219 43.1765 14.6791 42.6353 14.6791 41.9529C14.6791 41.2706 15.2219 40.7294 15.9063 40.7294C16.5907 40.7294 17.1335 41.2706 17.1335 41.9529C17.1335 42.6353 16.5907 43.1765 15.9063 43.1765ZM38.1609 38.3765C36.1785 38.3765 34.5738 39.9765 34.5738 41.9529C34.5738 43.9294 36.1785 45.5294 38.1609 45.5294C40.1433 45.5294 41.7481 43.9294 41.7481 41.9529C41.7481 39.9765 40.1433 38.3765 38.1609 38.3765ZM38.1609 43.1765C37.4765 43.1765 36.9337 42.6353 36.9337 41.9529C36.9337 41.2706 37.4765 40.7294 38.1609 40.7294C38.8453 40.7294 39.3881 41.2706 39.3881 41.9529C39.3881 42.6353 38.8453 43.1765 38.1609 43.1765ZM51.5892 32.3294C51.7072 32.8 51.9904 33.2235 52.4152 33.4824C52.6984 33.6706 53.0524 33.7647 53.3828 33.7647C53.5244 33.7647 53.666 33.7647 53.8076 33.7176L61.1708 31.9765C62.162 31.7412 62.7756 30.7529 62.5396 29.7647L59.094 15.1765C58.976 14.7059 58.6928 14.2824 58.268 14.0235C57.8432 13.7647 57.3476 13.6941 56.8756 13.7882L49.5125 15.5294C48.5213 15.7647 47.9077 16.7529 48.1437 17.7412L51.5892 32.3294ZM56.9228 16.2118L60.1324 29.7882L53.7604 31.2941L50.5508 17.7176L56.9228 16.2118ZM44.5801 31.3647C44.5801 31.1294 44.5565 30.8706 44.5093 30.6353L38.0429 2.49412C37.7125 1.01177 36.4145 0 34.8806 0H17.4639C15.6703 0 14.2307 1.43529 14.2307 3.22353V23.1529H3.23318C1.4632 23.1529 0 24.5882 0 26.3765V39.9294C0 41.6941 1.4396 43.1529 3.23318 43.1529H7.95315C8.51955 47.0118 11.8471 50 15.8827 50C19.9183 50 23.2458 47.0118 23.8122 43.1529H30.2078C30.7742 47.0118 34.1018 50 38.1373 50C42.5741 50 46.1849 46.4 46.1849 41.9765C46.1849 40.1647 45.5713 38.5176 44.5565 37.1765V31.3882L44.5801 31.3647ZM16.5907 3.22353C16.5907 2.75294 16.9919 2.35294 17.4639 2.35294H34.8806C35.2817 2.35294 35.6357 2.63529 35.7301 3.03529L41.8897 29.9765H29.2874C29.0514 29.9765 28.839 29.8824 28.6738 29.7176L23.0334 24.0941C22.4434 23.5059 21.5939 23.1529 20.7443 23.1529H16.5671V3.22353H16.5907ZM2.35998 39.9059V26.3529C2.35998 25.8824 2.73759 25.4824 3.23318 25.4824H20.7679C21.0039 25.4824 21.2162 25.5765 21.3814 25.7412L27.0218 31.3647C27.6354 31.9765 28.4378 32.3059 29.311 32.3059H42.2437V35.0353C41.0401 34.3294 39.6713 33.9059 38.1845 33.9059C34.149 33.9059 30.8214 36.8941 30.255 40.7529H23.8594C23.293 36.8941 19.9655 33.9059 15.9299 33.9059C11.8943 33.9059 8.56674 36.8941 8.00034 40.7529H3.28038C2.80838 40.7529 2.40719 40.3765 2.40719 39.8824L2.35998 39.9059ZM15.9063 47.6235C12.7675 47.6235 10.2187 45.0824 10.2187 41.9529C10.2187 38.8235 12.7675 36.2824 15.9063 36.2824C19.0451 36.2824 21.5939 38.8235 21.5939 41.9529C21.5939 45.0824 19.0451 47.6235 15.9063 47.6235ZM38.1609 47.6235C35.0222 47.6235 32.4734 45.0824 32.4734 41.9529C32.4734 38.8235 35.0222 36.2824 38.1609 36.2824C41.2997 36.2824 43.8485 38.8235 43.8485 41.9529C43.8485 45.0824 41.2997 47.6235 38.1609 47.6235ZM64.1444 35.6L50.9756 38.7059L51.8252 42.3294C51.9668 42.9647 51.5892 43.6 50.9521 43.7412C50.8577 43.7412 50.7632 43.7647 50.6688 43.7647C50.126 43.7647 49.6541 43.4118 49.5125 42.8471L39.6949 1.45882C39.5533 0.823529 39.9309 0.188235 40.5681 0.0470588C41.2053 -0.0941177 41.8425 0.282353 41.9841 0.917647L50.3856 36.4L63.5544 33.2941C64.1916 33.1529 64.8287 33.5294 64.9703 34.1647C65.1119 34.8 64.7344 35.4353 64.0972 35.5765L64.1444 35.6Z" fill="#004539"/>
</svg>
