<svg width="38" height="50" viewBox="0 0 38 50" fill="none" xmlns="http://www.w3.org/2000/svg">
<path d="M36.4148 5.00739L25.7427 0.234107C25.2291 -0.00897647 24.6263 -0.0531735 24.0682 0.0573192L2.05405 5.02949C0.84841 5.29467 0 6.3554 0 7.59292V17.4047C0 18.3549 0.535833 19.2388 1.36192 19.7029L1.74148 19.9018V28.2108C1.74148 28.6307 1.85311 29.0506 2.05405 29.4263L2.65687 30.5754L1.98707 30.7964C0.893066 31.15 0.178609 32.1444 0.178609 33.2935V42.4202C0.178609 43.4809 0.803759 44.4091 1.78613 44.8289L13.463 49.779C13.7979 49.9116 14.1551 50 14.5123 50C14.8696 50 15.2045 49.9337 15.5394 49.8011L33.8026 42.2213C34.785 41.8014 35.4324 40.8733 35.4324 39.8126V33.1167C36.5264 32.7852 37.3302 31.8129 37.3302 30.6417V21.1393C37.3302 20.388 36.9953 19.6808 36.4371 19.1725L36.2362 18.9958C37.2856 18.6201 38 17.6698 38 16.5428V7.37193C38 6.3333 37.3972 5.40516 36.4371 4.98529L36.4148 5.00739ZM34.7403 31.3267L23.1751 32.6968V23.0177L35.3431 21.4929V30.6417C35.3431 30.9953 35.0752 31.2825 34.7403 31.3267ZM2.29965 18.0234C2.07638 17.9129 1.94242 17.6698 1.94242 17.4268V8.03489L5.89424 10.2005V20.0123L2.29965 18.0455V18.0234ZM13.0164 23.084V13.0955L23.4877 10.5762V20.3659L13.0164 23.084ZM11.074 22.7967L7.85898 21.0509V11.2392L11.074 12.985V22.7967ZM24.5593 8.32217L21.9918 6.92996L31.0564 4.74221L33.9812 6.04602L24.537 8.32217H24.5593ZM21.7462 9.00722L12.0787 11.3276L9.51116 9.93536L19.1786 7.61502L21.7462 9.00722ZM6.96592 8.54315L3.54994 6.68688L13.4183 4.45493L16.6334 6.20071L6.96592 8.52106V8.54315ZM10.8731 24.8961C11.275 25.1171 11.6992 25.2275 12.1457 25.2275C12.369 25.2275 12.5922 25.2054 12.8155 25.1391L18.9553 23.5481L21.2103 23.2608V32.9178L8.77438 34.3984L7.85898 34.0449V23.2608L10.8731 24.8961ZM18.6651 35.1719L14.557 36.5862L12.7039 35.879L18.6651 35.1719ZM15.517 38.3099L23.9342 35.415V44.2102L15.517 47.7018V38.2878V38.3099ZM33.3561 19.7913L33.9589 19.6366L34.0482 19.7029L33.3561 19.7913ZM25.4524 19.8576V10.1122L36.0353 7.57082V16.587C36.0353 16.8964 35.812 17.1837 35.5217 17.25L25.4524 19.8576ZM24.5147 1.95779C24.5147 1.95779 24.6263 1.95779 24.671 1.95779C24.7603 1.95779 24.8719 1.95779 24.9612 2.02409L28.1986 3.46049L19.4912 5.55985L16.3208 3.83617L24.537 1.97989L24.5147 1.95779ZM5.89424 22.2V32.5422L3.77321 28.5423C3.77321 28.5423 3.6839 28.3434 3.6839 28.2329V20.9846L5.89424 22.1779V22.2ZM3.63924 32.4538L3.4383 32.3654L3.57227 32.3212L3.63924 32.4538ZM2.12103 42.4423V33.9565L5.0235 35.0614V35.1056C5.40306 35.7685 6.00587 36.2326 6.72033 36.4094V44.851L2.54524 43.0832C2.29965 42.9727 2.12103 42.7296 2.12103 42.4423ZM8.68508 45.6687V36.4315L13.5523 38.2878V47.7459L8.68508 45.6687ZM33.0212 40.4313L25.8989 43.3925V34.7299L27.7744 34.0891L33.4454 33.4261V39.7905C33.4454 40.0778 33.2891 40.3208 33.0212 40.4313Z" fill="#004539"/>
</svg>
