<svg width="24" height="24" viewBox="0 0 24 24" fill="none" xmlns="http://www.w3.org/2000/svg">
<path fill-rule="evenodd" clip-rule="evenodd" d="M8.17298 15.829C12.018 19.674 15.581 20.095 16.627 20.134C17.891 20.18 19.181 19.148 19.739 18.091C18.849 17.047 17.69 16.237 16.421 15.359C15.672 16.107 14.749 17.497 13.52 16.999C12.821 16.718 11.095 15.923 9.58698 14.414C8.07898 12.905 7.28398 11.18 7.00098 10.482C6.50298 9.25097 7.89698 8.32597 8.64598 7.57697C7.76798 6.28697 6.97198 5.09797 5.92998 4.25297C4.85798 4.81297 3.81998 6.09297 3.86698 7.37397C3.90598 8.41997 4.32698 11.983 8.17298 15.829ZM16.553 22.133C15.113 22.08 11.032 21.516 6.75798 17.243C2.48498 12.969 1.92198 8.88897 1.86798 7.44797C1.78798 5.25197 3.46998 3.11897 5.41298 2.28597C5.64695 2.18494 5.90318 2.14647 6.15651 2.17435C6.40984 2.20222 6.65157 2.29548 6.85798 2.44497C8.46598 3.61797 9.57498 5.39497 10.528 6.78697C10.7262 7.07642 10.817 7.42607 10.7847 7.77542C10.7524 8.12476 10.599 8.45181 10.351 8.69997L8.99498 10.057C9.30998 10.752 9.95098 11.95 11.001 13C12.051 14.05 13.249 14.691 13.945 15.006L15.3 13.65C15.5488 13.4009 15.8773 13.2473 16.2279 13.2161C16.5786 13.1848 16.929 13.2779 17.218 13.479C18.638 14.463 20.306 15.556 21.522 17.113C21.6836 17.3209 21.7864 17.5684 21.8197 17.8296C21.8529 18.0908 21.8154 18.3562 21.711 18.598C20.874 20.551 18.756 22.214 16.553 22.133Z" fill="#004539"/>
</svg>
