<svg width="30" height="30" viewBox="0 0 30 30" fill="none" xmlns="http://www.w3.org/2000/svg">
<rect width="30" height="30" rx="15" fill="#EC1C24"/>
<path fill-rule="evenodd" clip-rule="evenodd" d="M17.5562 17.9256C16.4255 19.6895 14.0712 20.8021 11.6078 20.0825C9.28294 19.4017 7.68604 17.1491 7.81818 14.7196C7.94687 12.2793 9.78003 10.204 12.1624 9.78302C14.6866 9.33455 16.7143 10.6878 17.5803 12.1044C16.5542 11.0955 15.361 10.6411 13.9641 10.8008C12.8697 10.9265 11.9551 11.4212 11.2389 12.2562C9.83701 13.888 9.88859 16.3351 11.3524 17.875C12.1918 18.7582 13.2243 19.2204 14.443 19.2317C15.6607 19.2406 16.6937 18.7798 17.5592 17.9281" fill="white"/>
<path d="M19.7435 13.051L20.7406 13.9764L22.0708 13.6817L21.4976 14.9195L22.1897 16.089L20.8389 15.9264L19.9356 16.9481L19.6747 15.6111L18.4232 15.0688L19.6128 14.4086L19.7435 13.051Z" fill="white"/>
</svg>
