<svg width="31" height="30" viewBox="0 0 31 30" fill="none" xmlns="http://www.w3.org/2000/svg">
<path d="M15.0602 0C6.77711 0 0 6.76205 0 15.0904C0 22.6205 5.51205 28.8705 12.7108 30V19.4578H8.88554V15.0904H12.7108V11.762C12.7108 7.98193 14.9548 5.90361 18.4036 5.90361C20.0452 5.90361 21.7621 6.18976 21.7621 6.18976V9.90964H19.8645C17.997 9.90964 17.4096 11.0693 17.4096 12.259V15.0904H21.5964L20.9187 19.4578H17.4096V30C20.9585 29.4395 24.1901 27.6288 26.521 24.8947C28.8519 22.1606 30.1285 18.6832 30.1205 15.0904C30.1205 6.76205 23.3434 0 15.0602 0Z" fill="white"/>
</svg>
