<svg width="200" height="34" viewBox="0 0 200 34" fill="none" xmlns="http://www.w3.org/2000/svg">
<path d="M27.1641 0C24.1773 0 21.3081 1.19941 19.1679 3.316L11.2422 11.2415H28.3871L39.3467 5.62074L33.7258 16.58V33.7245L41.675 25.7755C43.7916 23.6589 44.9675 20.8132 44.9675 17.8265V0H27.1641Z" fill="#FFA300"/>
<path d="M16.5805 22.483L5.62089 28.1037L11.2418 17.1444V0L3.29257 7.949C1.17592 10.0656 0 12.9113 0 15.898V33.7245H17.8034C20.7902 33.7245 23.6595 32.5251 25.7997 30.4085L33.7253 22.483H16.5805Z" fill="#FFA300"/>
<path d="M63.4288 22.6952H72.7186V28.0337H57.1729V5.69187H63.4523V22.6952H63.4288ZM95.8842 12.2298C96.4721 13.6409 96.7779 15.1931 96.7779 16.8628C96.7779 18.5326 96.4721 20.0377 95.8842 21.4488C95.2962 22.8598 94.4495 24.0828 93.3677 25.1411C92.2858 26.1994 91.0159 27.0225 89.5342 27.5869C88.0761 28.1513 86.4768 28.4571 84.7364 28.4571C82.9961 28.4571 81.3733 28.1749 79.8917 27.5869C78.41 26.999 77.14 26.1758 76.0347 25.1411C74.9293 24.1063 74.0826 22.8598 73.4711 21.4488C72.8597 20.0377 72.5539 18.4855 72.5539 16.8393C72.5539 15.1931 72.8597 13.6409 73.4476 12.2298C74.0356 10.8187 74.8822 9.59582 75.9641 8.56104C77.0459 7.52626 78.3395 6.70314 79.7976 6.13871C81.2792 5.57429 82.8785 5.26855 84.6424 5.26855C86.4063 5.26855 88.0055 5.55077 89.4872 6.13871C90.9688 6.70314 92.2388 7.52626 93.3207 8.56104C94.4025 9.59582 95.2492 10.8423 95.8371 12.2533L95.8842 12.2298ZM90.3809 16.8393C90.3809 15.9221 90.2397 15.099 89.981 14.3464C89.7223 13.5938 89.3461 12.9589 88.8286 12.4415C88.3348 11.9006 87.7233 11.5008 87.0177 11.2185C86.3122 10.9363 85.5361 10.7952 84.6424 10.7952C83.4665 10.7952 82.4552 11.0304 81.6085 11.5243C80.7618 12.0182 80.1033 12.7237 79.633 13.6174C79.1626 14.5346 78.9509 15.5929 78.9509 16.8393C78.9509 17.78 79.092 18.6266 79.3507 19.3792C79.6094 20.1318 79.9857 20.7668 80.5031 21.3077C80.997 21.8486 81.6085 22.2484 82.3141 22.5306C83.0196 22.8128 83.7957 22.9539 84.6894 22.9539C85.8653 22.9539 86.8766 22.6952 87.7233 22.2013C88.5699 21.7075 89.2285 20.9784 89.6988 20.0612C90.1692 19.144 90.3809 18.0622 90.3809 16.8393ZM122.86 28.0337H129.139V5.69187H122.86V28.0102V28.0337ZM152.775 12.2768C153.363 13.6409 153.669 15.1695 153.669 16.8628C153.669 18.5561 153.363 20.0847 152.775 21.4488C152.187 22.8128 151.34 23.9887 150.259 24.9764C149.177 25.9642 147.907 26.7168 146.425 27.2341C144.967 27.7515 143.368 28.0102 141.627 28.0102H132.149V5.69187H141.557C143.321 5.69187 144.92 5.95057 146.402 6.46796C147.883 6.98535 149.153 7.73792 150.235 8.72567C151.317 9.71341 152.164 10.8893 152.752 12.2533L152.775 12.2768ZM147.272 16.8393C147.272 15.5458 147.037 14.464 146.566 13.6174C146.096 12.7707 145.437 12.1122 144.591 11.6889C143.744 11.2656 142.733 11.0539 141.557 11.0539H138.429V22.7187H141.557C142.733 22.7187 143.744 22.5071 144.591 22.0838C145.437 21.6604 146.096 21.0019 146.566 20.1318C147.037 19.2616 147.248 18.1563 147.248 16.8628L147.272 16.8393ZM177.681 12.2298C178.269 13.6409 178.575 15.1931 178.575 16.8628C178.575 18.5326 178.269 20.0377 177.681 21.4488C177.093 22.8598 176.246 24.0828 175.165 25.1411C174.083 26.1994 172.813 27.0225 171.331 27.5869C169.873 28.1513 168.274 28.4571 166.533 28.4571C164.793 28.4571 163.17 28.1749 161.689 27.5869C160.207 26.999 158.937 26.1758 157.832 25.1411C156.726 24.1063 155.88 22.8598 155.268 21.4488C154.657 20.0377 154.351 18.4855 154.351 16.8393C154.351 15.1931 154.657 13.6409 155.245 12.2298C155.833 10.8187 156.679 9.59582 157.761 8.56104C158.843 7.52626 160.136 6.70314 161.594 6.13871C163.076 5.57429 164.675 5.26855 166.439 5.26855C168.203 5.26855 169.802 5.55077 171.284 6.13871C172.766 6.70314 174.036 7.52626 175.118 8.56104C176.199 9.59582 177.046 10.8423 177.634 12.2533L177.681 12.2298ZM172.178 16.8393C172.178 15.9221 172.037 15.099 171.778 14.3464C171.519 13.5938 171.143 12.9589 170.626 12.4415C170.132 11.9006 169.52 11.5008 168.815 11.2185C168.109 10.9363 167.333 10.7952 166.439 10.7952C165.263 10.7952 164.252 11.0304 163.405 11.5243C162.559 12.0182 161.9 12.7237 161.43 13.6174C160.96 14.5346 160.748 15.5929 160.748 16.8393C160.748 17.78 160.889 18.6266 161.148 19.3792C161.406 20.1318 161.783 20.7668 162.3 21.3077C162.794 21.8486 163.405 22.2484 164.111 22.5306C164.817 22.8128 165.593 22.9539 166.486 22.9539C167.662 22.9539 168.674 22.6952 169.52 22.2013C170.367 21.7075 171.025 20.9784 171.496 20.0612C171.966 19.144 172.178 18.0622 172.178 16.8393ZM195.79 21.1666C195.249 21.731 194.614 22.1543 193.862 22.46C193.109 22.7423 192.286 22.9069 191.345 22.9069C190.499 22.9069 189.746 22.7658 189.04 22.4836C188.335 22.2013 187.747 21.8015 187.23 21.2842C186.736 20.7668 186.336 20.1318 186.054 19.3792C185.771 18.6266 185.63 17.8035 185.63 16.8628C185.63 15.9221 185.771 15.1225 186.054 14.3699C186.336 13.6174 186.736 13.0059 187.23 12.465C187.723 11.9476 188.335 11.5478 189.04 11.2656C189.746 10.9834 190.499 10.8658 191.345 10.8658C192.309 10.8658 193.156 11.0304 193.862 11.3361C194.591 11.6419 195.202 12.0887 195.696 12.6296L199.859 8.41993C198.801 7.45571 197.531 6.70314 196.096 6.16223C194.661 5.62132 193.062 5.33911 191.322 5.33911C189.581 5.33911 188.029 5.62132 186.547 6.20927C185.089 6.77369 183.796 7.5733 182.714 8.60808C181.609 9.64286 180.762 10.8423 180.15 12.2533C179.539 13.6644 179.233 15.1931 179.233 16.8628C179.233 18.5326 179.539 20.0377 180.15 21.4488C180.762 22.8598 181.632 24.0828 182.738 25.1411C183.843 26.1758 185.136 26.999 186.618 27.5634C188.1 28.1278 189.675 28.4335 191.392 28.4335C193.25 28.4335 194.873 28.1749 196.261 27.6339C197.648 27.093 198.895 26.364 200 25.3998L195.79 21.1901V21.1666ZM108.819 19.8731L114.417 20.0377C114.417 20.0377 114.346 20.2494 114.299 20.3434C113.899 21.1666 113.311 21.778 112.535 22.2249C111.759 22.6717 110.818 22.8834 109.689 22.8834C108.561 22.8834 107.502 22.6247 106.609 22.1308C105.738 21.6369 105.056 20.9314 104.562 20.0142C104.069 19.097 103.833 18.0387 103.833 16.8393C103.833 15.6399 104.092 14.5816 104.633 13.6644C105.174 12.7707 105.879 12.0652 106.773 11.5713C107.667 11.0774 108.678 10.8423 109.784 10.8423C110.959 10.8423 111.947 11.0539 112.794 11.5008C113.641 11.9476 114.44 12.6061 115.216 13.4998L119.45 9.26657C118.415 8.04365 117.098 7.10294 115.451 6.37389C113.805 5.66836 111.947 5.31559 109.878 5.31559C108.161 5.31559 106.561 5.5978 105.056 6.18575C103.551 6.75017 102.234 7.5733 101.082 8.60808C99.9528 9.64286 99.0591 10.8658 98.4241 12.2533C97.7891 13.6644 97.4599 15.1931 97.4599 16.8628C97.4599 18.5326 97.7656 20.0377 98.3771 21.4488C98.9886 22.8598 99.8352 24.0828 100.941 25.1175C102.046 26.1523 103.316 26.9754 104.798 27.5399C106.279 28.1043 107.879 28.41 109.619 28.41C111.947 28.41 113.97 27.9162 115.71 26.9284C117.451 25.9407 118.815 24.5061 119.779 22.6247C120.743 20.7432 121.237 18.462 121.237 15.781V14.8403H113.876L108.866 19.8496L108.819 19.8731Z" fill="white"/>
</svg>
