<svg width="38" height="30" viewBox="0 0 38 30" fill="none" xmlns="http://www.w3.org/2000/svg">
<path fill-rule="evenodd" clip-rule="evenodd" d="M18.75 0C20.3531 0 21.9975 0.0412502 23.5912 0.10875L25.4737 0.19875L27.2756 0.305625L28.9631 0.42L30.5044 0.54C32.1772 0.667296 33.7515 1.38081 34.9499 2.55488C36.1483 3.72894 36.894 5.28824 37.0556 6.95813L37.1306 7.755L37.2712 9.46125C37.4025 11.2294 37.5 13.1569 37.5 15C37.5 16.8431 37.4025 18.7706 37.2712 20.5388L37.1306 22.245L37.0556 23.0419C36.894 24.7121 36.148 26.2716 34.9492 27.4457C33.7504 28.6198 32.1757 29.3331 30.5025 29.46L28.965 29.5781L27.2775 29.6944L25.4737 29.8012L23.5912 29.8912C21.9784 29.9611 20.3643 29.9974 18.75 30C17.1357 29.9974 15.5216 29.9611 13.9087 29.8912L12.0262 29.8012L10.2244 29.6944L8.53687 29.5781L6.99562 29.46C5.32277 29.3327 3.7485 28.6192 2.55008 27.4451C1.35167 26.2711 0.605983 24.7118 0.444375 23.0419L0.369375 22.245L0.22875 20.5388C0.0859364 18.6959 0.00963683 16.8484 0 15C0 13.1569 0.0974999 11.2294 0.22875 9.46125L0.369375 7.755L0.444375 6.95813C0.60592 5.28854 1.35133 3.72947 2.54937 2.55545C3.7474 1.38142 5.32123 0.667718 6.99375 0.54L8.53312 0.42L10.2206 0.305625L12.0244 0.19875L13.9069 0.10875C15.5203 0.0388635 17.135 0.00260546 18.75 0ZM15 10.4531V19.5469C15 20.4131 15.9375 20.9531 16.6875 20.5219L24.5625 15.975C24.7339 15.8764 24.8762 15.7343 24.9752 15.5631C25.0741 15.392 25.1262 15.1977 25.1262 15C25.1262 14.8023 25.0741 14.608 24.9752 14.4369C24.8762 14.2657 24.7339 14.1236 24.5625 14.025L16.6875 9.48C16.5164 9.38123 16.3224 9.32925 16.1248 9.32928C15.9273 9.32931 15.7332 9.38136 15.5622 9.48018C15.3911 9.57901 15.2491 9.72113 15.1504 9.89225C15.0518 10.0634 14.9999 10.2575 15 10.455V10.4531Z" fill="white"/>
</svg>
