<svg width="200" height="34" viewBox="0 0 200 34" fill="none" xmlns="http://www.w3.org/2000/svg">
<path d="M27.1641 0C24.1773 0 21.308 1.19941 19.1679 3.316L11.2422 11.2415H28.3871L39.3466 5.62074L33.7257 16.58V33.7245L41.675 25.7755C43.7916 23.6589 44.9675 20.8132 44.9675 17.8265V0H27.1641Z" fill="#FFA300"/>
<path d="M16.5805 22.483L5.62089 28.1037L11.2418 17.1444V0L3.29257 7.949C1.17592 10.0656 0 12.9113 0 15.898V33.7245H17.8034C20.7902 33.7245 23.6595 32.5251 25.7997 30.4085L33.7253 22.483H16.5805Z" fill="#FFA300"/>
<path d="M63.4287 22.6947H72.7185V28.0333H57.1729V5.69139H63.4523V22.6947H63.4287ZM95.8841 12.2293C96.4721 13.6404 96.7778 15.1926 96.7778 16.8623C96.7778 18.5321 96.4721 20.0372 95.8841 21.4483C95.2961 22.8594 94.4495 24.0823 93.3676 25.1406C92.2858 26.1989 91.0158 27.022 89.5341 27.5864C88.076 28.1508 86.4767 28.4566 84.7364 28.4566C82.996 28.4566 81.3733 28.1744 79.8916 27.5864C78.4099 26.9985 77.14 26.1754 76.0346 25.1406C74.9292 24.1058 74.0826 22.8594 73.4711 21.4483C72.8596 20.0372 72.5539 18.485 72.5539 16.8388C72.5539 15.1926 72.8596 13.6404 73.4476 12.2293C74.0355 10.8183 74.8822 9.59533 75.964 8.56055C77.0459 7.52577 78.3394 6.70265 79.7975 6.13822C81.2792 5.5738 82.8784 5.26807 84.6423 5.26807C86.4062 5.26807 88.0054 5.55028 89.4871 6.13822C90.9688 6.70265 92.2388 7.52577 93.3206 8.56055C94.4024 9.59533 95.2491 10.8418 95.8371 12.2528L95.8841 12.2293ZM90.3808 16.8388C90.3808 15.9216 90.2397 15.0985 89.981 14.3459C89.7223 13.5934 89.346 12.9584 88.8286 12.441C88.3347 11.9001 87.7232 11.5003 87.0177 11.2181C86.3121 10.9358 85.536 10.7947 84.6423 10.7947C83.4664 10.7947 82.4551 11.0299 81.6084 11.5238C80.7618 12.0177 80.1033 12.7232 79.6329 13.6169C79.1625 14.5341 78.9509 15.5924 78.9509 16.8388C78.9509 17.7795 79.092 18.6262 79.3507 19.3787C79.6094 20.1313 79.9857 20.7663 80.5031 21.3072C80.997 21.8481 81.6084 22.2479 82.314 22.5301C83.0195 22.8123 83.7956 22.9534 84.6893 22.9534C85.8653 22.9534 86.8766 22.6947 87.7232 22.2009C88.5699 21.707 89.2284 20.9779 89.6988 20.0607C90.1691 19.1435 90.3808 18.0617 90.3808 16.8388ZM122.86 28.0333H129.139V5.69139H122.86V28.0097V28.0333ZM152.775 12.2764C153.363 13.6404 153.669 15.169 153.669 16.8623C153.669 18.5556 153.363 20.0843 152.775 21.4483C152.187 22.8123 151.34 23.9882 150.259 24.976C149.177 25.9637 147.907 26.7163 146.425 27.2337C144.967 27.751 143.368 28.0097 141.627 28.0097H132.149V5.69139H141.557C143.321 5.69139 144.92 5.95008 146.402 6.46747C147.883 6.98486 149.153 7.73743 150.235 8.72518C151.317 9.71292 152.164 10.8888 152.752 12.2528L152.775 12.2764ZM147.272 16.8388C147.272 15.5453 147.037 14.4635 146.566 13.6169C146.096 12.7702 145.437 12.1117 144.591 11.6884C143.744 11.2651 142.733 11.0534 141.557 11.0534H138.429V22.7182H141.557C142.733 22.7182 143.744 22.5066 144.591 22.0833C145.437 21.6599 146.096 21.0015 146.566 20.1313C147.037 19.2611 147.248 18.1558 147.248 16.8623L147.272 16.8388ZM177.681 12.2293C178.269 13.6404 178.575 15.1926 178.575 16.8623C178.575 18.5321 178.269 20.0372 177.681 21.4483C177.093 22.8594 176.246 24.0823 175.165 25.1406C174.083 26.1989 172.813 27.022 171.331 27.5864C169.873 28.1508 168.274 28.4566 166.533 28.4566C164.793 28.4566 163.17 28.1744 161.689 27.5864C160.207 26.9985 158.937 26.1754 157.831 25.1406C156.726 24.1058 155.879 22.8594 155.268 21.4483C154.657 20.0372 154.351 18.485 154.351 16.8388C154.351 15.1926 154.657 13.6404 155.244 12.2293C155.832 10.8183 156.679 9.59533 157.761 8.56055C158.843 7.52577 160.136 6.70265 161.594 6.13822C163.076 5.5738 164.675 5.26807 166.439 5.26807C168.203 5.26807 169.802 5.55028 171.284 6.13822C172.766 6.70265 174.036 7.52577 175.118 8.56055C176.199 9.59533 177.046 10.8418 177.634 12.2528L177.681 12.2293ZM172.178 16.8388C172.178 15.9216 172.037 15.0985 171.778 14.3459C171.519 13.5934 171.143 12.9584 170.626 12.441C170.132 11.9001 169.52 11.5003 168.815 11.2181C168.109 10.9358 167.333 10.7947 166.439 10.7947C165.263 10.7947 164.252 11.0299 163.405 11.5238C162.559 12.0177 161.9 12.7232 161.43 13.6169C160.959 14.5341 160.748 15.5924 160.748 16.8388C160.748 17.7795 160.889 18.6262 161.148 19.3787C161.406 20.1313 161.783 20.7663 162.3 21.3072C162.794 21.8481 163.405 22.2479 164.111 22.5301C164.816 22.8123 165.593 22.9534 166.486 22.9534C167.662 22.9534 168.673 22.6947 169.52 22.2009C170.367 21.707 171.025 20.9779 171.496 20.0607C171.966 19.1435 172.178 18.0617 172.178 16.8388ZM195.79 21.1661C195.249 21.7305 194.614 22.1538 193.862 22.4596C193.109 22.7418 192.286 22.9064 191.345 22.9064C190.499 22.9064 189.746 22.7653 189.04 22.4831C188.335 22.2009 187.747 21.8011 187.229 21.2837C186.736 20.7663 186.336 20.1313 186.054 19.3787C185.771 18.6262 185.63 17.803 185.63 16.8623C185.63 15.9216 185.771 15.122 186.054 14.3694C186.336 13.6169 186.736 13.0054 187.229 12.4645C187.723 11.9471 188.335 11.5473 189.04 11.2651C189.746 10.9829 190.499 10.8653 191.345 10.8653C192.309 10.8653 193.156 11.0299 193.862 11.3356C194.591 11.6414 195.202 12.0882 195.696 12.6291L199.859 8.41945C198.801 7.45522 197.531 6.70265 196.096 6.16174C194.661 5.62083 193.062 5.33862 191.322 5.33862C189.581 5.33862 188.029 5.62083 186.547 6.20878C185.089 6.7732 183.796 7.57281 182.714 8.60759C181.609 9.64237 180.762 10.8418 180.15 12.2528C179.539 13.6639 179.233 15.1926 179.233 16.8623C179.233 18.5321 179.539 20.0372 180.15 21.4483C180.762 22.8594 181.632 24.0823 182.737 25.1406C183.843 26.1754 185.136 26.9985 186.618 27.5629C188.1 28.1273 189.675 28.4331 191.392 28.4331C193.25 28.4331 194.873 28.1744 196.261 27.6335C197.648 27.0926 198.895 26.3635 200 25.3993L195.79 21.1896V21.1661ZM108.819 19.8726L114.417 20.0372C114.417 20.0372 114.346 20.2489 114.299 20.343C113.899 21.1661 113.311 21.7775 112.535 22.2244C111.759 22.6712 110.818 22.8829 109.689 22.8829C108.56 22.8829 107.502 22.6242 106.608 22.1303C105.738 21.6364 105.056 20.9309 104.562 20.0137C104.068 19.0965 103.833 18.0382 103.833 16.8388C103.833 15.6394 104.092 14.5811 104.633 13.6639C105.174 12.7702 105.879 12.0647 106.773 11.5708C107.667 11.077 108.678 10.8418 109.783 10.8418C110.959 10.8418 111.947 11.0534 112.794 11.5003C113.64 11.9471 114.44 12.6056 115.216 13.4993L119.45 9.26609C118.415 8.04316 117.098 7.10245 115.451 6.3734C113.805 5.66787 111.947 5.3151 109.878 5.3151C108.161 5.3151 106.561 5.59732 105.056 6.18526C103.551 6.74969 102.234 7.57281 101.082 8.60759C99.9528 9.64237 99.0591 10.8653 98.4241 12.2528C97.7891 13.6639 97.4598 15.1926 97.4598 16.8623C97.4598 18.5321 97.7656 20.0372 98.377 21.4483C98.9885 22.8594 99.8352 24.0823 100.941 25.1171C102.046 26.1518 103.316 26.975 104.798 27.5394C106.279 28.1038 107.878 28.4095 109.619 28.4095C111.947 28.4095 113.97 27.9157 115.71 26.9279C117.45 25.9402 118.815 24.5056 119.779 22.6242C120.743 20.7428 121.237 18.4615 121.237 15.7805V14.8398H113.876L108.866 19.8491L108.819 19.8726Z" fill="#004539"/>
</svg>
