<svg width="16" height="16" viewBox="0 0 16 16" fill="none" xmlns="http://www.w3.org/2000/svg">
<path d="M13.8005 15.75L10.4518 12.285C9.94447 12.705 9.361 13.0375 8.70141 13.2825C8.04183 13.5275 7.33997 13.65 6.59582 13.65C4.75238 13.65 3.19221 12.9894 1.91533 11.6681C0.638442 10.3469 0 8.7325 0 6.825C0 4.9175 0.638442 3.30312 1.91533 1.98187C3.19221 0.660625 4.75238 0 6.59582 0C8.43927 0 9.99944 0.660625 11.2763 1.98187C12.5532 3.30312 13.1916 4.9175 13.1916 6.825C13.1916 7.595 13.0733 8.32125 12.8365 9.00375C12.5997 9.68625 12.2784 10.29 11.8725 10.815L15.2211 14.28L13.8005 15.75ZM6.59582 11.55C7.86425 11.55 8.94241 11.0906 9.83031 10.1719C10.7182 9.25312 11.1622 8.1375 11.1622 6.825C11.1622 5.5125 10.7182 4.39687 9.83031 3.47812C8.94241 2.55937 7.86425 2.1 6.59582 2.1C5.3274 2.1 4.24923 2.55937 3.36133 3.47812C2.47343 4.39687 2.02948 5.5125 2.02948 6.825C2.02948 8.1375 2.47343 9.25312 3.36133 10.1719C4.24923 11.0906 5.3274 11.55 6.59582 11.55Z" fill="#004539"/>
</svg>
