<svg width="45" height="35" viewBox="0 0 45 35" fill="none" xmlns="http://www.w3.org/2000/svg">
<path d="M44.1555 32.8214H42.1849V7.5626C42.1849 6.57763 41.5502 5.70952 40.5983 5.42571L23.1633 0.100167C22.7123 -0.033389 22.2447 -0.033389 21.8105 0.100167L4.34207 5.87646C3.42355 6.17696 2.80563 7.02838 2.80563 7.99666V32.788H0.835013C0.367406 32.788 0 33.1553 0 33.6227C0 34.0902 0.367406 34.4574 0.835013 34.4574H44.1388C44.6064 34.4574 44.9738 34.0902 44.9738 33.6227C44.9738 33.1553 44.6064 32.788 44.1388 32.788L44.1555 32.8214ZM4.49236 8.03005C4.49236 7.77963 4.64267 7.5626 4.87647 7.49583L22.3449 1.71953C22.4618 1.68614 22.5787 1.68614 22.6957 1.71953L40.1307 7.04507C40.3645 7.11185 40.5315 7.32888 40.5315 7.5793V32.8381H33.3003V19.399C33.3003 18.6811 32.7158 18.0801 31.981 18.0801H13.0763C12.3415 18.0801 11.757 18.6644 11.757 19.399V32.8381H4.52577V8.03005H4.49236ZM31.6136 28.5476V29.8331H13.4103V28.5476H31.6136ZM13.4103 26.8781V25.5927H31.6136V26.8781H13.4103ZM31.6136 23.9232H13.4103V22.6377H31.6136V23.9232ZM13.4103 31.5025H31.6136V32.7212H13.4103V31.5025ZM31.6136 20.9683H13.4103V19.7496H31.6136V20.9683Z" fill="#FFA300"/>
</svg>
