<svg width="39" height="39" viewBox="0 0 39 39" fill="none" xmlns="http://www.w3.org/2000/svg">
<path d="M36.3166 16.7045C35.8429 16.2297 35.0097 16.2297 34.5359 16.7045L32.9023 18.3414L31.6934 13.7252C33.3434 11.7772 34.7973 9.91102 35.9736 8.22494C39.731 2.7902 39.2082 1.20234 38.4894 0.482069C36.5943 -1.41682 30.7295 2.59376 25.2567 7.2755L20.6497 6.06414L22.2834 4.42717C22.7735 3.93608 22.7735 3.13396 22.2834 2.64287L21.1398 1.49699C20.8948 1.25145 20.5844 1.12049 20.2413 1.12049C19.8982 1.12049 19.5878 1.25145 19.3428 1.49699L15.9938 4.85278L7.85809 2.72472C7.417 2.61013 6.95957 2.74109 6.63284 3.05211L3.96997 5.72038C3.67591 6.01503 3.54521 6.42427 3.61056 6.83352C3.67591 7.24276 3.93728 7.58652 4.31303 7.76659L17.7582 14.2654C15.5527 16.508 13.0368 19.2745 10.8151 22.0246L2.84273 21.3207C2.46699 21.288 2.09125 21.4189 1.82987 21.6972L0.375901 23.1541C0.0818398 23.4488 -0.0488558 23.8416 0.0164911 24.2345C0.0655012 24.6438 0.310542 24.9875 0.669949 25.184L6.42048 28.3597C5.17889 30.6351 4.70511 32.4849 5.61997 33.3852C5.9467 33.7126 6.40413 33.8599 6.94324 33.8599C7.9071 33.8599 9.19771 33.3852 10.6517 32.5831L13.8373 38.3616C14.0334 38.7053 14.3765 38.9509 14.7685 39C14.8339 39 14.8829 39 14.9482 39C15.275 39 15.6017 38.869 15.8304 38.6235L17.3171 37.1339C17.5784 36.8719 17.7091 36.4954 17.6765 36.1353L16.9576 28.1469C19.7022 25.9206 22.4631 23.3833 24.7013 21.1898L31.1869 34.662C31.3666 35.0385 31.7097 35.3004 32.1181 35.3659C32.1834 35.3659 32.2651 35.3823 32.3305 35.3823C32.6736 35.3823 33.0003 35.2513 33.229 35.0058L35.8919 32.3375C36.2023 32.0265 36.333 31.5518 36.2186 31.1098L34.0949 22.9577L37.4439 19.6019C37.934 19.1108 37.934 18.3087 37.4439 17.8176L36.3003 16.6717L36.3166 16.7045ZM37.3295 1.62795C37.9503 2.6265 34.0295 9.56726 24.3582 19.2581C16.7289 26.9028 10.815 30.9461 8.16849 32.0101L14.2131 25.9533C14.5398 25.6259 14.5398 25.1185 14.2131 24.7911C13.8863 24.4637 13.3799 24.4637 13.0532 24.7911L7.02493 30.8315C8.08681 28.1796 12.122 22.2538 19.7512 14.6091C29.4225 4.91826 36.3493 1.0059 37.3295 1.61158V1.62795ZM20.2577 2.92116L20.8784 3.54321L18.82 5.60579L17.8562 5.34387L20.274 2.92116H20.2577ZM7.66206 4.37806L23.77 8.58508C22.0384 10.1238 20.4047 11.6626 18.9997 13.0704L5.50562 6.53886L7.66206 4.37806ZM1.87887 24.0053L2.89174 22.9904L9.62246 23.5961C8.72394 24.7584 7.92344 25.9042 7.25364 26.9846L1.87887 24.0217V24.0053ZM16.0264 36.1517L15.0136 37.1666L12.0566 31.781C13.1349 31.0934 14.2621 30.2913 15.4383 29.391L16.0428 36.1353L16.0264 36.1517ZM32.4448 33.5325L25.9265 20.0111C27.5112 18.4069 29.0141 16.8027 30.4027 15.2312L34.6013 31.3717L32.4448 33.5325ZM33.6374 21.157L33.376 20.1748L35.4345 18.1122L36.0553 18.7343L33.6374 21.157Z" fill="#004539"/>
</svg>
