<svg width="48" height="35" viewBox="0 0 48 35" fill="none" xmlns="http://www.w3.org/2000/svg">
<path d="M10.6214 26.4775C9.25195 26.4775 8.13303 27.596 8.13303 28.9649C8.13303 30.3339 9.25195 31.4524 10.6214 31.4524C11.9908 31.4524 13.1097 30.3339 13.1097 28.9649C13.1097 27.596 11.9908 26.4775 10.6214 26.4775ZM10.6214 29.783C10.1705 29.783 9.80305 29.4157 9.80305 28.9649C9.80305 28.5142 10.1705 28.1469 10.6214 28.1469C11.0723 28.1469 11.4397 28.5142 11.4397 28.9649C11.4397 29.4157 11.0723 29.783 10.6214 29.783ZM37.9764 26.4775C36.607 26.4775 35.4881 27.596 35.4881 28.9649C35.4881 30.3339 36.607 31.4524 37.9764 31.4524C39.3458 31.4524 40.4647 30.3339 40.4647 28.9649C40.4647 27.596 39.3458 26.4775 37.9764 26.4775ZM37.9764 29.783C37.5255 29.783 37.1581 29.4157 37.1581 28.9649C37.1581 28.5142 37.5255 28.1469 37.9764 28.1469C38.4273 28.1469 38.7947 28.5142 38.7947 28.9649C38.7947 29.4157 38.4273 29.783 37.9764 29.783ZM46.6772 18.9316L28.3904 0.651085C27.9729 0.233723 27.3884 0 26.8039 0H2.23784C1.00202 0 0 1.00167 0 2.23706V27.5626C0 28.798 1.00202 29.8164 2.23784 29.8164H5.12698C5.52779 32.4875 7.83242 34.5409 10.6047 34.5409C13.3769 34.5409 15.6815 32.4875 16.0824 29.8164H32.4653C32.8661 32.4875 35.1708 34.5409 37.943 34.5409C40.7152 34.5409 43.0199 32.4875 43.4207 29.8164H45.0573C46.2931 29.8164 47.2951 28.8147 47.2951 27.5626V20.5175C47.2951 19.9165 47.0613 19.3489 46.6438 18.9316H46.6772ZM43.905 18.5142L28.7245 15.2588C28.4572 15.2087 28.2735 14.9583 28.2735 14.6912V7.49583C28.2735 7.17863 28.5408 6.91152 28.8581 6.91152H32.315L43.905 18.4975V18.5142ZM10.6214 32.8715C8.46703 32.8715 6.73021 31.1185 6.73021 28.9816C6.73021 26.8447 8.48373 25.0918 10.6214 25.0918C12.759 25.0918 14.5125 26.8447 14.5125 28.9816C14.5125 31.1185 12.759 32.8715 10.6214 32.8715ZM10.6214 23.4057C7.83242 23.4057 5.54449 25.4591 5.14368 28.1302H2.25454C1.93723 28.1302 1.68673 27.8798 1.68673 27.5459V2.23706C1.68673 1.91987 1.93723 1.66945 2.25454 1.66945H23.6142V28.1469H16.0991C15.6982 25.4758 13.3936 23.4224 10.6214 23.4224V23.4057ZM37.9764 32.8715C35.8221 32.8715 34.0852 31.1185 34.0852 28.9816C34.0852 26.8447 35.8388 25.0918 37.9764 25.0918C40.114 25.0918 41.8676 26.8447 41.8676 28.9816C41.8676 31.1185 40.114 32.8715 37.9764 32.8715ZM45.0907 28.1302H43.4541C43.0533 25.4591 40.7486 23.4057 37.9764 23.4057C35.2042 23.4057 32.8995 25.4591 32.4987 28.1302H25.2842V1.66945H26.8206C26.9709 1.66945 27.1212 1.73623 27.2214 1.83639L30.645 5.25877H28.8581C27.6222 5.25877 26.6035 6.26043 26.6035 7.51252V14.7078C26.6035 15.7596 27.355 16.6778 28.3737 16.9115L45.6585 20.6177V27.5793C45.6585 27.8965 45.408 28.1636 45.0907 28.1636V28.1302Z" fill="#FFA300"/>
</svg>
