<svg width="39" height="39" viewBox="0 0 39 39" fill="none" xmlns="http://www.w3.org/2000/svg">
<g clip-path="url(#clip0_129_4521)">
<path d="M24.1463 5.78884C24.2696 5.84996 24.2696 5.84996 24.3954 5.91232C25.3041 6.3791 26.0718 6.9943 26.8123 7.69314C26.8685 7.74439 26.9247 7.79565 26.9825 7.84846C28.8157 9.58407 29.8747 12.1932 29.9509 14.7001C29.9954 17.7306 28.9967 20.3584 26.8885 22.5467C26.8396 22.6004 26.7907 22.6541 26.7403 22.7094C25.0907 24.4698 22.5343 25.4806 20.1507 25.6031C18.2858 25.6598 16.5254 25.3789 14.8534 24.5271C14.7747 24.489 14.6961 24.4509 14.615 24.4117C12.4982 23.3416 10.8447 21.5112 9.90219 19.3474C9.88081 19.2985 9.85942 19.2495 9.8374 19.1991C8.75204 16.6551 8.83007 13.794 9.77573 11.2244C10.8548 8.55806 12.9595 6.58953 15.5639 5.44934C18.3005 4.33379 21.5141 4.44467 24.1463 5.78884ZM18.168 6.64488C17.3619 7.52983 16.8731 8.66942 16.6053 9.82595C18.3889 10.5288 20.6107 10.5288 22.3944 9.82595C22.0922 8.46777 21.4392 6.98406 20.2616 6.1697C19.4292 5.7358 18.7969 6.04588 18.168 6.64488ZM22.242 6.39822C22.2706 6.45536 22.2992 6.51251 22.3286 6.57139C22.4105 6.73524 22.4923 6.89919 22.5738 7.06323C22.6469 7.20867 22.7212 7.35358 22.7981 7.49706C23.1148 8.09433 23.3213 8.73007 23.537 9.36892C24.1247 9.10375 24.6229 8.76587 25.1366 8.37869C25.212 8.32841 25.2874 8.27814 25.3651 8.22634C25.25 7.88814 24.9849 7.73991 24.6986 7.55508C24.6224 7.50529 24.6224 7.50529 24.5447 7.45449C23.8242 6.99221 23.0794 6.6008 22.242 6.39822ZM13.6346 8.074C13.6346 8.12427 13.6346 8.17454 13.6346 8.22634C13.7938 8.35596 13.9524 8.47533 14.1202 8.59292C14.1683 8.62703 14.2165 8.66114 14.266 8.69628C14.6466 8.96108 15.0375 9.18274 15.4627 9.36892C15.4942 9.27858 15.5256 9.18825 15.5579 9.09518C15.8525 8.26407 16.1943 7.48247 16.6053 6.7029C16.6564 6.6015 16.7074 6.50003 16.7577 6.39822C15.7547 6.39822 14.3615 7.43968 13.6346 8.074ZM12.6444 8.98806C11.6055 10.2742 10.8506 11.5958 10.4782 13.2204C10.4657 13.2747 10.4532 13.329 10.4404 13.385C10.3555 13.7922 10.3592 14.1165 10.3592 14.5486C11.7669 14.5486 13.1745 14.5486 14.6248 14.5486C14.6997 14.3242 14.7191 14.1504 14.7337 13.9154C14.7392 13.8341 14.7447 13.7529 14.7503 13.6691C14.756 13.5823 14.7618 13.4955 14.7677 13.406C14.8162 12.7098 14.8858 12.0262 15.015 11.34C15.101 10.917 15.101 10.917 15.0057 10.5115C14.8197 10.3861 14.6479 10.2869 14.4487 10.1878C13.8759 9.886 13.3816 9.53947 12.8729 9.1404C12.7975 9.09013 12.7221 9.03986 12.6444 8.98806ZM26.2791 8.98806C26.237 9.03122 26.237 9.03122 26.194 9.07524C25.6353 9.60541 24.9578 9.96928 24.2987 10.3592C24.1717 10.4353 24.0447 10.5114 23.9178 10.5877C23.927 10.6606 23.9363 10.7336 23.9458 10.8087C23.9803 11.0827 24.0144 11.3568 24.0483 11.6308C24.0624 11.7444 24.0767 11.858 24.0911 11.9716C24.1799 12.6731 24.2455 13.3703 24.2799 14.0767C24.2889 14.3215 24.2889 14.3215 24.3748 14.5486C25.7825 14.5486 27.1902 14.5486 28.6405 14.5486C28.6405 12.603 27.7728 10.5165 26.4112 9.11511C26.3677 9.07319 26.3241 9.03126 26.2791 8.98806ZM16.3006 11.0447C16.17 11.5257 16.0893 12.0028 16.0245 12.4967C16.0143 12.568 16.0041 12.6392 15.9936 12.7126C15.9105 13.3392 15.9198 13.9012 15.9198 14.5486C18.2826 14.5486 20.6455 14.5486 23.0799 14.5486C23.0799 13.8551 23.067 13.2187 22.9752 12.5396C22.9656 12.4623 22.9559 12.385 22.946 12.3054C22.8902 11.8753 22.8139 11.463 22.6991 11.0447C22.6239 11.0614 22.6239 11.0614 22.5472 11.0785C20.3838 11.5528 18.4572 11.5932 16.3006 11.0447ZM10.3592 15.7674C10.3494 16.3139 10.3494 16.3139 10.4238 16.8242C10.4382 16.8876 10.4526 16.9509 10.4674 17.0161C10.4836 17.0816 10.4997 17.1471 10.5163 17.2146C10.5334 17.2842 10.5505 17.3538 10.568 17.4255C10.9461 18.8998 11.6529 20.1758 12.6444 21.3279C12.7598 21.2384 12.7598 21.2384 12.8777 21.147C13.5754 20.6243 14.3061 20.1277 15.0819 19.7283C15.0664 19.6045 15.0509 19.4807 15.0354 19.357C15.0218 19.2475 15.0081 19.138 14.9946 19.0285C14.9602 18.7522 14.9253 18.476 14.8882 18.2001C14.8056 17.5744 14.7505 16.9557 14.7198 16.3256C14.7074 16.0609 14.7074 16.0609 14.6248 15.7674C13.2172 15.7674 11.8095 15.7674 10.3592 15.7674ZM15.9198 15.7674C15.9198 16.4911 15.9284 17.1541 16.0245 17.8621C16.0341 17.9397 16.0437 18.0172 16.0537 18.0971C16.1062 18.5018 16.1751 18.8828 16.3006 19.2713C16.3507 19.2601 16.4008 19.249 16.4525 19.2375C18.6159 18.7632 20.5425 18.7228 22.6991 19.2713C22.8349 18.7764 22.9118 18.2853 22.9752 17.7764C22.9854 17.7009 22.9956 17.6254 23.0061 17.5476C23.0827 16.9408 23.0799 16.3907 23.0799 15.7674C20.7171 15.7674 18.3542 15.7674 15.9198 15.7674ZM24.3748 15.7674C24.3 15.9918 24.2806 16.1656 24.2659 16.4005C24.2605 16.4818 24.255 16.5631 24.2494 16.6468C24.2436 16.7337 24.2379 16.8205 24.232 16.9099C24.1835 17.6062 24.1138 18.2898 23.9846 18.9759C23.8987 19.399 23.8987 19.399 23.994 19.8045C24.18 19.9298 24.3518 20.0291 24.551 20.1282C25.1238 20.43 25.618 20.7765 26.1268 21.1756C26.2399 21.251 26.2399 21.251 26.3553 21.3279C27.6441 19.738 28.6405 17.8596 28.6405 15.7674C27.2328 15.7674 25.8252 15.7674 24.3748 15.7674ZM16.6053 20.49C16.9059 21.8414 17.5635 23.4042 18.7714 24.1748C19.1974 24.3691 19.489 24.4116 19.9474 24.3081C21.1275 23.7885 21.6863 22.5145 22.1297 21.3919C22.2436 21.0938 22.3476 20.8074 22.3944 20.49C20.6987 19.7482 18.301 19.7482 16.6053 20.49ZM23.537 20.947C23.5055 21.0374 23.4741 21.1277 23.4417 21.2208C23.1472 22.0519 22.8054 22.8335 22.3944 23.6131C22.3434 23.7145 22.2926 23.8161 22.242 23.9177C22.7681 23.778 23.2387 23.5945 23.7179 23.3369C23.78 23.3038 23.8422 23.2708 23.9063 23.2367C24.4248 22.9544 24.9302 22.6447 25.3651 22.242C25.3651 22.1917 25.3651 22.1414 25.3651 22.0896C25.2059 21.96 25.0473 21.8406 24.8795 21.723C24.8314 21.6889 24.7832 21.6548 24.7336 21.6197C24.3531 21.3549 23.9622 21.1332 23.537 20.947ZM14.8486 21.2613C14.7968 21.2923 14.7451 21.3233 14.6918 21.3553C14.3215 21.5798 13.9737 21.8197 13.6346 22.0896C13.75 22.4192 13.9973 22.5684 14.2773 22.7514C14.3516 22.8004 14.3516 22.8004 14.4274 22.8504C15.1043 23.2839 15.9482 23.8121 16.7577 23.9177C16.7317 23.8741 16.7058 23.8304 16.6791 23.7853C16.4126 23.3182 16.1902 22.842 15.9817 22.3467C15.9563 22.2868 15.931 22.2268 15.9049 22.1651C15.7386 21.7647 15.5943 21.3601 15.4627 20.947C15.2626 20.947 15.022 21.1571 14.8486 21.2613Z" fill="#004539"/>
<path d="M34.0487 23.385C34.3308 23.6132 34.5927 23.8551 34.8499 24.1108C34.9604 24.2205 35.0723 24.3285 35.1847 24.4362C35.7975 25.0322 35.7975 25.0322 35.8768 25.2893C35.8554 25.7368 35.7472 25.9331 35.4333 26.2474C35.3947 26.2866 35.3561 26.3259 35.3163 26.3664C35.1871 26.4972 35.0563 26.6264 34.9255 26.7556C34.8323 26.8492 34.7392 26.943 34.6462 27.0369C34.3935 27.2913 34.1394 27.5443 33.885 27.797C33.6184 28.0622 33.3529 28.3285 33.0872 28.5947C32.6405 29.0419 32.1928 29.4882 31.7446 29.934C31.2278 30.4479 30.7125 30.9633 30.198 31.4796C29.7019 31.9772 29.2048 32.4738 28.7071 32.9699C28.496 33.1805 28.2852 33.3914 28.0748 33.6026C27.8261 33.8521 27.5765 34.1006 27.3262 34.3484C27.235 34.4389 27.1441 34.5299 27.0536 34.6211C26.3872 35.2922 25.7026 35.8733 24.77 36.1342C24.6538 36.1681 24.6538 36.1681 24.5353 36.2027C23.9653 36.336 23.4135 36.3483 22.83 36.3544C22.7369 36.3556 22.6438 36.3569 22.5479 36.3582C22.3464 36.3609 22.1449 36.3634 21.9433 36.3658C21.6245 36.3696 21.3056 36.3739 20.9868 36.3784C20.0805 36.3911 19.1742 36.403 18.2678 36.4141C17.7666 36.4203 17.2653 36.427 16.7641 36.4343C16.4473 36.4389 16.1305 36.4428 15.8137 36.4462C15.5703 36.449 15.327 36.4528 15.0837 36.4565C14.9961 36.4572 14.9086 36.458 14.8184 36.4587C14.7379 36.4601 14.6574 36.4615 14.5744 36.4629C14.4698 36.4643 14.4698 36.4643 14.3631 36.4656C14.0793 36.496 13.8571 36.5573 13.6683 36.7769C13.6354 36.8319 13.6025 36.8869 13.5686 36.9436C13.5313 37.0045 13.494 37.0655 13.4555 37.1284C13.4172 37.1931 13.3789 37.2578 13.3395 37.3244C13.259 37.4561 13.1783 37.5877 13.0976 37.7193C13.059 37.7826 13.0205 37.8459 12.9807 37.9111C12.8472 38.1278 12.7081 38.3385 12.5635 38.5479C12.5249 38.6038 12.4863 38.6597 12.4465 38.7172C12.2893 38.9095 12.1485 38.9924 11.9065 39.043C11.2125 38.9252 10.5945 38.0278 10.1049 37.5372C10.0154 37.4478 9.92594 37.3584 9.83647 37.269C9.65025 37.0829 9.46416 36.8966 9.27817 36.7103C9.03954 36.4712 8.80057 36.2325 8.56149 35.9939C8.37728 35.81 8.19325 35.6258 8.00928 35.4417C7.92117 35.3535 7.833 35.2654 7.74478 35.1773C7.62209 35.0549 7.49964 34.9321 7.37726 34.8093C7.30755 34.7395 7.23784 34.6698 7.16602 34.5979C6.96908 34.3889 6.93586 34.3219 6.90771 34.0341C6.93555 33.6953 7.04975 33.4937 7.23621 33.2207C7.30643 33.1131 7.37665 33.0056 7.44687 32.8981C7.50556 32.8097 7.50556 32.8097 7.56544 32.7194C7.75632 32.4299 7.94225 32.1372 8.1287 31.8448C8.28505 31.5997 8.44196 31.3549 8.59897 31.1102C8.84924 30.7197 9.09822 30.3285 9.34663 29.9368C11.165 27.0715 11.165 27.0715 12.5682 26.6604C13.6079 26.4396 14.6805 26.4855 15.7371 26.4875C16.0004 26.4879 16.2637 26.4876 16.5271 26.4873C16.9685 26.4871 17.41 26.4874 17.8515 26.4881C18.3598 26.489 18.8681 26.4887 19.3764 26.4879C19.8156 26.4872 20.2548 26.4871 20.694 26.4875C20.9551 26.4877 21.2162 26.4878 21.4774 26.4872C21.7684 26.4869 22.0594 26.4875 22.3504 26.4883C22.4354 26.488 22.5203 26.4877 22.6078 26.4874C23.5237 26.4923 24.3901 26.5974 25.1027 27.2224C25.4113 27.5685 25.6171 27.9996 25.8221 28.4123C25.879 28.3549 25.9359 28.2976 25.9944 28.2385C26.5317 27.6966 27.0696 27.1553 27.608 26.6146C27.8848 26.3366 28.1614 26.0584 28.4375 25.7797C28.7042 25.5106 28.9714 25.2419 29.2391 24.9737C29.3408 24.8715 29.4424 24.7692 29.5437 24.6666C29.6862 24.5224 29.8295 24.3789 29.9729 24.2356C30.0142 24.1935 30.0554 24.1514 30.0979 24.1081C31.0556 23.1579 32.8262 22.5864 34.0487 23.385ZM30.6805 25.3384C30.5989 25.4421 30.5181 25.5464 30.4377 25.651C30.3437 25.7698 30.2494 25.8883 30.155 26.0067C30.0805 26.1 30.0805 26.1 30.0046 26.1952C26.1567 30.9511 26.1567 30.9511 23.5273 31.2794C22.6619 31.3596 21.8046 31.3545 20.9376 31.3068C20.8529 31.3023 20.7682 31.2978 20.6809 31.2931C19.8317 31.2442 18.9864 31.1671 18.1445 31.045C18.0538 31.0324 18.0538 31.0324 17.9612 31.0196C17.7372 30.9839 17.5561 30.9513 17.3676 30.8209C17.2351 30.6076 17.2692 30.407 17.2909 30.1643C17.4432 29.9357 17.4432 29.9357 17.6718 29.8596C17.8884 29.8504 18.1033 29.8454 18.32 29.8439C18.3862 29.8432 18.4523 29.8424 18.5205 29.8416C18.7393 29.8392 18.9582 29.8374 19.177 29.8355C19.3287 29.8339 19.4804 29.8323 19.632 29.8307C20.0314 29.8265 20.4307 29.8227 20.8301 29.819C21.2375 29.8152 21.6449 29.811 22.0524 29.8068C22.8519 29.7986 23.6515 29.7908 24.451 29.7834C24.6089 29.4127 24.684 29.1097 24.551 28.7131C24.3806 28.3361 24.1792 28.1161 23.8417 27.8791C23.6049 27.8002 23.4401 27.7928 23.1917 27.7917C23.1041 27.7912 23.0164 27.7906 22.9261 27.7901C22.8298 27.7899 22.7336 27.7897 22.6344 27.7894C22.532 27.789 22.4296 27.7885 22.3273 27.7879C21.9909 27.7863 21.6546 27.7855 21.3182 27.7848C21.2022 27.7845 21.0862 27.7842 20.9703 27.7838C20.4251 27.7824 19.88 27.7813 19.3348 27.7807C18.7066 27.7799 18.0785 27.7779 17.4503 27.7748C16.9641 27.7725 16.478 27.7714 15.9918 27.7712C15.7018 27.771 15.4118 27.7703 15.1217 27.7684C14.8484 27.7666 14.5752 27.7663 14.3019 27.7671C14.1548 27.7671 14.0078 27.7657 13.8608 27.7642C13.0741 27.7688 12.4574 27.9339 11.8764 28.4814C11.37 29.0342 10.9784 29.6894 10.5878 30.3261C10.4889 30.4859 10.3899 30.6455 10.2908 30.8052C10.24 30.8871 10.1891 30.969 10.1368 31.0534C9.81842 31.5628 9.49315 32.0678 9.16847 32.5732C9.07448 32.7196 8.9808 32.8662 8.88751 33.013C8.80544 33.1402 8.72133 33.2661 8.63475 33.3903C8.59839 33.4435 8.56204 33.4967 8.52458 33.5515C8.49253 33.5966 8.46049 33.6418 8.42747 33.6882C8.36172 33.8221 8.36172 33.8221 8.43263 33.9606C8.54813 34.1536 8.68074 34.2942 8.83968 34.4535C8.90323 34.5175 8.96678 34.5815 9.03225 34.6475C9.10097 34.7159 9.16968 34.7843 9.24048 34.8548C9.31091 34.9254 9.38134 34.9959 9.45391 35.0687C9.60273 35.2177 9.75182 35.3665 9.90111 35.515C10.0927 35.7058 10.2836 35.8972 10.4743 36.0888C10.6562 36.2713 10.8386 36.4533 11.021 36.6353C11.1241 36.7388 11.1241 36.7388 11.2292 36.8445C11.3245 36.9391 11.3245 36.9391 11.4218 37.0356C11.5058 37.1194 11.5058 37.1194 11.5916 37.205C11.7191 37.341 11.7191 37.341 11.8827 37.3244C11.9762 37.204 11.9762 37.204 12.0648 37.0459C12.1 36.9868 12.1353 36.9277 12.1716 36.8668C12.2082 36.8041 12.2449 36.7415 12.2826 36.677C13.0392 35.3901 13.0392 35.3901 13.4061 35.2678C13.5398 35.2596 13.6737 35.2558 13.8076 35.2544C13.8909 35.2533 13.9742 35.2523 14.06 35.2512C14.1514 35.2504 14.2428 35.2496 14.3369 35.2488C14.4847 35.247 14.6325 35.2453 14.7803 35.2436C14.9393 35.2417 15.0984 35.2401 15.2575 35.2385C15.5899 35.2351 15.9224 35.231 16.2548 35.2268C17.2003 35.2148 18.1458 35.2034 19.0913 35.1936C19.6134 35.1881 20.1355 35.1819 20.6576 35.1748C20.9333 35.1711 21.2091 35.1678 21.4849 35.1655C23.4482 35.1484 24.8694 35.0714 26.3101 33.6065C26.3706 33.5449 26.3706 33.5449 26.4323 33.4821C26.5194 33.3949 26.6066 33.3077 26.6939 33.2207C26.9282 32.9864 27.1614 32.751 27.3944 32.5154C27.6389 32.2685 27.8845 32.0227 28.13 31.7768C28.5936 31.3119 29.0563 30.8461 29.5187 30.3799C30.0455 29.8488 30.5734 29.3188 31.1014 28.7889C32.1866 27.6997 33.2705 26.6092 34.3534 25.5178C34.2804 25.4323 34.2074 25.3468 34.1343 25.2614C34.0733 25.19 34.0733 25.19 34.011 25.1172C33.8851 24.9715 33.7556 24.8311 33.6202 24.6942C33.5784 24.6513 33.5366 24.6083 33.4935 24.5641C33.1805 24.2933 32.9065 24.2657 32.5038 24.2752C31.78 24.3584 31.1388 24.7841 30.6805 25.3384Z" fill="#004539"/>
<path d="M28.2597 2.7422C28.3387 2.79974 28.4177 2.85728 28.4992 2.91657C29.0789 3.34612 29.6127 3.81782 30.1337 4.31637C30.2245 4.40302 30.3162 4.48858 30.4082 4.5739C32.6044 6.66722 34.0252 9.76074 34.5058 12.7207C34.5146 12.7738 34.5234 12.8268 34.5325 12.8814C34.8076 14.6218 34.6876 16.3954 34.4296 18.1289C34.7075 17.9691 34.9854 17.8092 35.2632 17.6491C35.3577 17.5947 35.4521 17.5403 35.5467 17.486C35.6826 17.4078 35.8186 17.3295 35.9545 17.2512C36.0772 17.1806 36.0772 17.1806 36.2023 17.1085C36.3504 17.0214 36.4956 16.9293 36.6386 16.834C36.8682 16.8085 37.027 16.7909 37.2479 16.834C37.4758 17.0277 37.5406 17.1507 37.5955 17.4434C37.5395 17.7419 37.4014 17.8697 37.1718 18.0528C36.9007 18.2296 36.6203 18.3886 36.3386 18.5479C36.1746 18.6417 36.0107 18.7356 35.8468 18.8296C35.7635 18.8773 35.6801 18.925 35.5943 18.9741C35.35 19.1155 35.1081 19.2601 34.8667 19.4063C34.7915 19.4517 34.7163 19.497 34.6389 19.5438C34.496 19.6302 34.3534 19.7172 34.2112 19.8047C33.6009 20.1718 33.6009 20.1718 33.2108 20.1856C32.5653 19.9596 32.2078 18.9937 31.8969 18.4336C31.5333 17.7803 31.5333 17.7803 31.1491 17.139C31.1137 17.0814 31.0782 17.0238 31.0416 16.9645C30.9761 16.8588 30.9094 16.7538 30.8415 16.6497C30.6187 16.2885 30.58 16.0395 30.621 15.6153C30.7352 15.4248 30.7352 15.4248 30.9257 15.3106C31.1395 15.2646 31.3253 15.2446 31.535 15.3106C31.7663 15.5735 31.9431 15.8531 32.1168 16.1565C32.1415 16.1995 32.1662 16.2426 32.1917 16.287C32.2699 16.4231 32.3476 16.5595 32.4253 16.6959C32.4783 16.7883 32.5313 16.8807 32.5843 16.9731C32.9658 17.6389 32.9658 17.6389 33.0585 17.8242C33.185 17.423 33.2544 17.0379 33.2965 16.6198C33.3029 16.5567 33.3092 16.4936 33.3158 16.4286C33.6518 12.8167 32.5267 9.14897 30.211 6.35702C30.0942 6.21808 29.9768 6.07972 29.8593 5.94142C29.8064 5.8777 29.7536 5.81397 29.6992 5.74832C29.4005 5.39441 29.0714 5.09563 28.7167 4.79884C28.6501 4.74081 28.5835 4.68278 28.515 4.62299C26.4307 2.8321 23.8327 1.68578 21.0995 1.37111C21.0285 1.36267 20.9575 1.35422 20.8844 1.34552C17.169 0.970436 13.4908 2.16498 10.6098 4.51231C9.99916 5.02021 9.40991 5.54866 8.912 6.16994C8.85348 6.2426 8.79496 6.31526 8.73466 6.39012C8.35604 6.86793 8.01013 7.35871 7.68986 7.87759C7.3533 8.41946 7.3533 8.41946 7.01722 8.52174C6.73338 8.5331 6.62063 8.47424 6.39833 8.30275C6.2736 8.0533 6.27803 7.81017 6.32216 7.54103C6.43303 7.29733 6.58051 7.0868 6.73634 6.86977C6.778 6.80972 6.81967 6.74968 6.86259 6.68782C7.19342 6.21636 7.54197 5.7653 7.92176 5.33205C7.97626 5.26921 8.03076 5.20636 8.0869 5.14162C8.82939 4.30057 9.60789 3.55664 10.5116 2.89455C10.5763 2.84701 10.5763 2.84701 10.6423 2.79851C15.7357 -0.887433 23.1586 -1.02591 28.2597 2.7422Z" fill="#004539"/>
<path d="M6.01746 10.2071C6.43574 10.6276 6.69677 11.1646 6.98389 11.6782C7.09191 11.8704 7.20016 12.0625 7.30851 12.2546C7.34826 12.3252 7.34826 12.3252 7.38881 12.3972C7.54274 12.6694 7.70116 12.938 7.86611 13.2037C7.9197 13.2907 7.9197 13.2907 7.97436 13.3793C8.03841 13.4823 8.10349 13.5846 8.16981 13.6862C8.39267 14.0471 8.41699 14.2898 8.37878 14.7013C8.26453 14.8917 8.26453 14.8917 8.0741 15.006C7.8603 15.052 7.67451 15.0719 7.46472 15.006C7.23247 14.7425 7.05761 14.4628 6.8857 14.1574C6.83531 14.0687 6.78493 13.98 6.73454 13.8914C6.65637 13.7528 6.57833 13.6143 6.50037 13.4756C6.42444 13.3409 6.34801 13.2064 6.27156 13.0719C6.22643 12.9918 6.1813 12.9116 6.1348 12.8291C6.0348 12.637 6.0348 12.637 5.86511 12.5685C5.24605 16.2949 5.97178 20.0618 8.16455 23.1802C8.51026 23.6584 8.88759 24.0986 9.29285 24.5275C9.38049 24.6303 9.46779 24.7334 9.55469 24.8369C9.82231 25.1461 10.1239 25.4114 10.4324 25.679C10.6254 25.8571 10.6587 25.9277 10.6877 26.189C10.6574 26.4987 10.5965 26.611 10.3593 26.8126C9.98701 26.8556 9.83114 26.8673 9.5172 26.6561C9.4463 26.5852 9.37541 26.5143 9.30237 26.4413C9.26354 26.4031 9.22471 26.3649 9.18471 26.3256C9.10521 26.2472 9.02633 26.1681 8.9481 26.0884C8.84668 25.9857 8.74217 25.8861 8.63735 25.787C8.11167 25.2847 7.66584 24.7311 7.23621 24.1466C7.2044 24.1033 7.1726 24.0601 7.13984 24.0155C4.62575 20.5411 3.94845 16.3656 4.57019 12.1876C4.27341 12.3606 3.97667 12.5335 3.67993 12.7065C3.59593 12.7555 3.51193 12.8044 3.42538 12.8549C3.34413 12.9022 3.26288 12.9496 3.17916 12.9984C3.10457 13.0419 3.02997 13.0854 2.95312 13.1302C2.81262 13.2126 2.67299 13.2966 2.5343 13.382C2.25075 13.5467 2.07623 13.5237 1.75183 13.4825C1.524 13.2889 1.45918 13.1659 1.4043 12.8732C1.46027 12.5746 1.59841 12.4468 1.828 12.2638C2.0991 12.087 2.37947 11.9279 2.66113 11.7687C2.82482 11.6748 2.98847 11.5809 3.15208 11.4869C3.23537 11.4392 3.31866 11.3916 3.40448 11.3425C3.87562 11.0708 4.34208 10.7912 4.80866 10.5118C4.8742 10.4729 4.93975 10.4339 5.00729 10.3937C5.06466 10.3594 5.12203 10.3251 5.18115 10.2898C5.48815 10.1215 5.684 10.1071 6.01746 10.2071Z" fill="#004539"/>
</g>
<defs>
<clipPath id="clip0_129_4521">
<rect width="39" height="39" fill="white"/>
</clipPath>
</defs>
</svg>
