<svg width="38" height="39" viewBox="0 0 38 39" fill="none" xmlns="http://www.w3.org/2000/svg">
<path d="M19 0C8.51671 0 0 8.7571 0 19.5C0 30.2429 8.53257 39 19 39C29.4675 39 38 30.2429 38 19.5C38 8.7571 29.4675 0 19 0ZM32.5442 22.2508C30.7362 21.5672 29.0551 20.6231 27.5008 19.4023C26.914 18.9466 26.1845 19.6953 26.3431 20.3139C26.4382 20.7045 26.4382 21.0301 26.3748 21.3393C25.5818 20.6557 24.773 19.9069 23.9007 19.4349C23.4249 19.1745 22.9332 19.0442 22.4733 19.4349C20.808 20.8184 23.2187 22.9019 23.2346 24.3018C23.2346 25.1319 22.1244 25.3598 21.7279 26.0597C21.3631 26.7108 21.3631 27.4921 21.3314 28.2083C21.2362 30.1615 20.4432 31.8218 19.1269 33.1565C18.7145 32.5705 18.3656 31.952 18.1753 31.2521C17.8422 30.1127 17.9533 28.8919 17.8581 27.72C17.7312 26.3201 17.3189 24.9203 16.2404 23.9762C15.7963 23.5856 15.2888 23.3414 14.7179 23.26C14.4007 23.2112 13.8932 23.3251 13.6236 23.1949C13.2588 23.0159 13.0684 22.3973 12.9416 22.0067C12.6561 21.0301 12.6719 19.8744 13.576 19.2396C14.3848 18.6861 15.495 18.7675 16.4149 18.8815C17.9533 19.0768 19.5551 19.5163 21.0618 18.914C22.3464 18.3932 22.9808 17.3189 22.1402 16.0167C21.3155 14.7308 19.793 14.3076 18.4291 13.9495C17.6361 13.7379 15.828 13.3472 16.6052 12.2241C17.1127 11.5079 18.7145 11.2475 19.5075 11.0033C23.9324 9.61978 28.6427 8.80593 33.2579 9.48957C33.3055 9.48957 33.3372 9.48957 33.3689 9.48957C34.5584 11.2801 35.4148 13.2984 35.9065 15.4633C34.828 15.7074 33.9716 16.4887 33.48 17.563C32.8138 19.0442 33.0042 20.7371 32.5125 22.2508H32.5442ZM3.6319 11.1173C4.32973 12.3869 4.91653 13.7216 5.32888 15.1215C5.56678 15.9353 6.01086 17.091 5.53507 17.9048C5.26545 18.3443 4.36144 18.621 3.94909 18.914C3.20368 19.4349 2.26795 20.4441 1.71286 21.5672C1.63356 20.8998 1.58598 20.2162 1.58598 19.5163C1.58598 16.4887 2.3314 13.624 3.6319 11.1336V11.1173ZM2.5693 25.3598C3.18783 25.6853 3.9015 25.8969 4.48832 26.076C5.78882 26.4503 7.29549 26.6782 8.24707 27.7525C9.21452 28.8594 9.19868 31.0242 9.57931 32.424C9.83307 33.3193 10.1344 34.1982 10.4675 35.0772C6.80385 32.9449 3.98082 29.5104 2.5693 25.376V25.3598ZM26.9457 35.3865C26.9933 33.8402 27.5801 32.3752 28.6903 31.2846C29.975 30.015 31.7195 29.7058 33.4324 29.4942C31.7988 31.9846 29.5626 34.0192 26.9457 35.4028V35.3865ZM34.4474 27.7362C31.9891 28.0455 29.4516 28.2897 27.5801 30.129C26.0417 31.659 25.1536 33.9215 25.3756 36.1189C23.3931 36.9165 21.2521 37.3723 19 37.3723C16.7479 37.3723 14.5593 36.9165 12.5609 36.0864C12.5609 36.0538 12.5609 36.0213 12.5451 35.9887C11.879 34.475 11.3239 32.9124 10.9274 31.2846C10.5943 29.9174 10.5467 28.3222 9.78547 27.1177C9.19866 26.1899 8.21535 25.5876 7.23205 25.1807C6.16944 24.7575 3.45743 24.5947 3.02922 23.4553C2.53757 22.1695 4.25041 20.5743 5.202 19.9883C6.04257 19.4837 6.96244 19.0117 7.2955 17.9862C7.67613 16.7654 7.04173 15.154 6.66109 13.9983C6.1853 12.5659 5.56678 11.1987 4.83723 9.89649C4.75793 9.75 4.63106 9.65234 4.52004 9.58723C7.64441 4.7692 12.9733 1.59516 19.0159 1.59516C24.2179 1.59516 28.8965 3.97162 32.0843 7.69908C28.2938 7.38982 24.5033 7.91069 20.8397 8.91987C19.2062 9.35935 16.7796 9.75 15.5108 11.0196C14.2103 12.3381 14.6861 14.0634 16.2087 14.861C16.9699 15.2517 17.7947 15.4144 18.6035 15.6423C19.222 15.8214 21.9023 16.8631 20.1419 17.4979C19.2379 17.8235 18.0167 17.4654 17.1127 17.3351C16.2563 17.2049 15.384 17.1073 14.5275 17.2212C12.8781 17.4491 11.5459 18.4908 11.2604 20.2325C11.0543 21.5835 11.4983 23.7158 12.6878 24.5296C13.4967 25.0831 14.4958 24.5785 15.2571 25.2133C16.2246 26.0109 16.288 27.5084 16.3356 28.6477C16.4307 31.1381 16.9541 32.9775 18.5083 34.9307C18.8097 35.3051 19.3172 35.1749 19.6344 34.9307C20.9508 33.8727 21.9182 32.4729 22.4733 30.8614C22.7429 30.0476 22.8856 29.2174 22.9332 28.371C22.9491 28.0129 22.9015 27.606 22.9967 27.2642C23.187 26.6945 23.4566 26.6782 23.8848 26.3527C24.995 25.5063 25.0584 24.2529 24.5192 22.9996C24.3923 22.7066 24.2337 22.4299 24.0751 22.1532C23.9165 21.8765 23.7897 21.5998 23.6786 21.2905C24.5192 21.9741 25.3915 22.6415 26.2638 23.3088C26.6285 23.5856 27.1202 23.3414 27.3422 23.0159C27.6436 22.5927 27.8339 22.1369 27.929 21.6649C29.4357 22.674 31.0534 23.4716 32.7821 24.0576C33.0993 24.1715 33.5276 23.9925 33.6703 23.6832C34.1778 22.6415 34.3522 21.5672 34.495 20.4278C34.6377 19.1907 34.9073 17.3677 36.2396 17.0259C36.3506 17.8397 36.4299 18.6536 36.4299 19.4837C36.4299 22.4462 35.7162 25.2458 34.4633 27.72L34.4474 27.7362ZM17.1285 6.75501C17.6995 6.21786 18.3815 5.24124 17.9691 4.42738C17.6043 3.69491 16.7955 3.6298 16.0818 3.64608C15.4791 3.64608 14.8923 3.67863 14.2897 3.74374C12.5134 3.95534 10.9274 4.65526 9.51586 5.7621C9.5 5.77838 9.48415 5.81094 9.45243 5.82721C9.42071 5.85977 9.38899 5.85977 9.35727 5.89232C8.7546 6.4783 8.31052 7.30843 8.23122 8.17112C8.1995 8.6106 8.35811 9.03381 8.73874 9.26169C9.16696 9.52212 9.72203 9.40818 10.182 9.35935C11.8948 9.16402 13.6394 8.62688 15.2254 7.94324C15.9232 7.65025 16.5893 7.29215 17.1285 6.75501ZM11.6569 7.40609C11.2446 7.52003 10.8322 7.6177 10.4199 7.68281C10.2613 7.71536 10.1185 7.73164 9.95993 7.74791V7.71536C10.0709 7.4712 10.2454 7.2596 10.4357 7.08055C11.4508 6.31553 12.5451 5.71327 13.8139 5.46912C14.3214 5.37145 14.8289 5.3389 15.3523 5.30634C15.6219 5.30634 15.8915 5.30634 16.1611 5.29007C16.1928 5.29007 16.2246 5.29007 16.2721 5.29007C16.2246 5.3389 16.1928 5.40401 16.1453 5.45284C15.9549 5.66444 15.7329 5.84349 15.495 5.98998C14.9875 6.31553 14.4324 6.52713 13.8614 6.72245C13.1319 6.96661 12.3865 7.21077 11.6411 7.42237L11.6569 7.40609Z" fill="#004539"/>
</svg>
