<svg width="29" height="38" viewBox="0 0 29 38" fill="none" xmlns="http://www.w3.org/2000/svg">
<path d="M27.2381 3.78287L19.2554 0.176858C18.8713 -0.00678133 18.4204 -0.0401703 18.0029 0.0433022L1.53642 3.79956C0.634607 3.9999 0 4.80123 0 5.73612V13.1485C0 13.8663 0.400801 14.5341 1.01871 14.8847L1.30262 15.035V21.3121C1.30262 21.6293 1.38612 21.9465 1.53642 22.2303L1.98733 23.0984L1.48632 23.2653C0.66801 23.5325 0.133599 24.2837 0.133599 25.1518V32.0466C0.133599 32.848 0.601208 33.5491 1.33602 33.8663L10.0703 37.6059C10.3208 37.7061 10.588 37.7729 10.8552 37.7729C11.1224 37.7729 11.3729 37.7228 11.6234 37.6226L25.2842 31.8964C26.019 31.5792 26.5033 30.878 26.5033 30.0767V25.0183C27.3216 24.7678 27.9228 24.0333 27.9228 23.1485V15.9698C27.9228 15.4022 27.6723 14.868 27.2548 14.484L27.1045 14.3505C27.8894 14.0667 28.4238 13.3488 28.4238 12.4974V5.56918C28.4238 4.78454 27.9729 4.08337 27.2548 3.76617L27.2381 3.78287ZM25.9856 23.666L17.3349 24.7011V17.3889L26.4365 16.237V23.1485C26.4365 23.4156 26.2361 23.6326 25.9856 23.666ZM1.72013 13.6159C1.55312 13.5325 1.45292 13.3488 1.45292 13.1652V6.07001L4.40887 7.70607V15.1184L1.72013 13.6326V13.6159ZM9.73625 17.439V9.89305L17.5687 7.98988V15.3855L9.73625 17.439ZM8.28333 17.2219L5.87849 15.9031V8.49072L8.28333 9.80958V17.2219ZM18.3703 6.28704L16.4498 5.23529L23.2301 3.58253L25.4178 4.56751L18.3536 6.28704H18.3703ZM16.2661 6.80457L9.03484 8.55749L7.11431 7.50574L14.3455 5.75282L16.2661 6.80457ZM5.21048 6.45399L2.65534 5.05165L10.0369 3.36551L12.4417 4.68437L5.21048 6.43729V6.45399ZM8.13303 18.8079C8.43363 18.9749 8.75094 19.0583 9.08494 19.0583C9.25194 19.0583 9.41895 19.0416 9.58595 18.9916L14.1785 17.7895L15.8653 17.5725V24.868L6.5632 25.9865L5.87849 25.7194V17.5725L8.13303 18.8079ZM13.9614 26.5708L10.8886 27.6393L9.50245 27.1051L13.9614 26.5708ZM11.6067 28.9415L17.9027 26.7545V33.3989L11.6067 36.0366V28.9248V28.9415ZM24.9502 14.9515L25.4011 14.8346L25.4679 14.8847L24.9502 14.9515ZM19.0383 15.0016V7.6393L26.9542 5.71943V12.5308C26.9542 12.7645 26.7872 12.9815 26.5701 13.0316L19.0383 15.0016ZM18.3369 1.47903C18.3369 1.47903 18.4204 1.47903 18.4538 1.47903C18.5206 1.47903 18.6041 1.47903 18.6709 1.52911L21.0924 2.61425L14.5793 4.20023L12.2079 2.89806L18.3536 1.49572L18.3369 1.47903ZM4.40887 16.7712V24.5842L2.82234 21.5625C2.82234 21.5625 2.75554 21.4123 2.75554 21.3288V15.853L4.40887 16.7545V16.7712ZM2.72214 24.5174L2.57184 24.4506L2.67204 24.4173L2.72214 24.5174ZM1.58652 32.0633V25.6527L3.75756 26.4874V26.5208C4.04146 27.0216 4.49237 27.3722 5.02678 27.5057V33.883L1.90383 32.5475C1.72013 32.464 1.58652 32.2804 1.58652 32.0633ZM6.4964 34.5007V27.5224L10.1371 28.9248V36.07L6.4964 34.5007ZM24.6997 30.5441L19.3723 32.7812V26.237L20.7751 25.7528L25.017 25.252V30.06C25.017 30.277 24.9001 30.4607 24.6997 30.5441Z" fill="#004539"/>
</svg>
