<svg width="39" height="39" viewBox="0 0 39 39" fill="none" xmlns="http://www.w3.org/2000/svg">
<g clip-path="url(#clip0_129_4482)">
<path d="M31.1545 3.35136C31.3746 3.44416 31.3746 3.44416 31.6035 3.57452C31.7305 3.64596 31.7305 3.64596 31.86 3.71883C31.9502 3.77087 32.0403 3.82295 32.1305 3.87504C32.224 3.92818 32.3176 3.98124 32.4112 4.03423C32.9979 4.36733 33.5811 4.70672 34.1609 5.05184C34.702 5.37303 35.2489 5.68435 35.7948 5.99729C35.9541 6.0889 36.1132 6.18093 36.272 6.27345C36.4059 6.35135 36.5404 6.42827 36.6757 6.50368C36.7302 6.53516 36.7848 6.56664 36.8409 6.59908C36.8871 6.62507 36.9334 6.65106 36.981 6.67784C37.2225 6.89068 37.2474 7.14686 37.2681 7.45767C37.2692 7.57593 37.2695 7.69421 37.2692 7.81248C37.2698 7.90971 37.2698 7.90971 37.2704 8.00891C37.2714 8.22263 37.2713 8.43634 37.2712 8.65007C37.2715 8.7989 37.2718 8.94773 37.2722 9.09656C37.2727 9.40826 37.2727 9.71995 37.2723 10.0317C37.2719 10.431 37.2731 10.8303 37.2749 11.2296C37.276 11.5369 37.2761 11.8441 37.2759 12.1514C37.2759 12.2986 37.2763 12.4458 37.2771 12.5931C37.278 12.7989 37.2775 13.0047 37.2766 13.2106C37.2772 13.2713 37.2778 13.332 37.2784 13.3945C37.2751 13.7426 37.2339 13.9663 37.0197 14.2439C36.539 14.654 35.9281 14.9358 35.3773 15.2389C34.8499 15.5301 34.3278 15.823 33.8205 16.1482C33.8621 16.55 33.913 16.9485 33.9729 17.3479C34.5263 21.1972 33.559 25.0788 31.264 28.212C30.9923 28.5656 30.7039 28.8994 30.4014 29.2269C30.256 29.3852 30.1171 29.5472 29.9786 29.7116C27.8414 32.152 24.237 33.8178 21.0236 34.0486C20.9561 34.0536 20.8885 34.0586 20.8189 34.0638C19.1247 34.1798 17.4957 34.0641 15.844 33.6678C15.7909 33.6553 15.7378 33.6429 15.6831 33.6301C14.1007 33.2485 12.3586 32.5232 11.1037 31.4683C10.9745 31.3677 10.9745 31.3677 10.8193 31.3909C10.6296 31.4739 10.4818 31.5813 10.3167 31.7063C8.98349 32.6581 7.31689 32.9163 5.71577 32.7159C4.07688 32.3896 2.5488 31.51 1.58959 30.1143C0.610444 28.5878 0.24875 26.8013 0.611718 25.011C0.849601 24.0458 1.33001 23.1417 1.98067 22.3943C2.03149 22.3273 2.03149 22.3273 2.08333 22.2589C2.70619 21.4581 3.92584 20.6323 4.95138 20.49C4.94499 20.4298 4.93861 20.3697 4.93204 20.3076C4.61005 16.7414 5.89257 13.0015 8.16365 10.2577C8.28536 10.113 8.40803 9.96922 8.53145 9.82597C8.56726 9.78439 8.60306 9.7428 8.63995 9.69996C9.03264 9.24783 9.43922 8.83369 9.90255 8.45488C9.94068 8.42261 9.97882 8.39034 10.0181 8.3571C12.964 5.86441 16.7584 4.6401 20.6099 4.89937C22.2127 5.03847 23.8529 5.38392 25.3035 6.09325C25.5536 6.18251 25.6462 6.16321 25.8986 6.09355C26.092 6.00467 26.092 6.00467 26.2881 5.89033C26.3635 5.84792 26.4388 5.80551 26.5164 5.76182C26.5969 5.71576 26.6774 5.6697 26.7603 5.62224C26.886 5.55108 26.886 5.55108 27.0142 5.47848C27.6017 5.14489 28.186 4.80596 28.7694 4.46538C28.8453 4.42106 28.9213 4.37675 28.9996 4.33109C29.323 4.14208 29.6459 3.95234 29.9664 3.75841C30.0153 3.72928 30.0642 3.70015 30.1145 3.67015C30.238 3.59651 30.361 3.52189 30.4838 3.44717C30.7352 3.33444 30.8806 3.32891 31.1545 3.35136ZM30.5689 4.95097C30.444 5.02638 30.444 5.02638 30.3166 5.10332C30.5421 5.34864 30.7685 5.50707 31.0587 5.66955C31.1888 5.74305 31.1888 5.74305 31.3216 5.81804C31.415 5.87022 31.5085 5.92239 31.602 5.97453C31.7949 6.08279 31.9875 6.19136 32.1801 6.30005C32.2285 6.32728 32.2768 6.35451 32.3266 6.38257C32.6393 6.55947 32.9478 6.74219 33.2543 6.92966C33.3302 6.97586 33.406 7.02206 33.4842 7.06967C33.6262 7.15669 33.7678 7.24457 33.9087 7.33341C33.9722 7.3721 34.0357 7.41079 34.1011 7.45066C34.1557 7.48479 34.2104 7.51891 34.2667 7.55407C34.4786 7.63575 34.596 7.60636 34.8107 7.54082C35.0199 7.42809 35.0199 7.42809 35.1916 7.3123C34.9661 7.06698 34.7397 6.90855 34.4495 6.74607C34.3628 6.69707 34.276 6.64808 34.1866 6.59759C34.0932 6.54542 33.9997 6.49325 33.9062 6.44108C33.7136 6.33272 33.5211 6.22402 33.3287 6.11527C33.2804 6.08802 33.2321 6.06078 33.1823 6.0327C32.6442 5.72835 32.114 5.41068 31.5861 5.0889C31.5221 5.05046 31.4582 5.01201 31.3922 4.97239C31.3368 4.93867 31.2814 4.90494 31.2243 4.87019C30.9592 4.74021 30.805 4.80846 30.5689 4.95097ZM28.717 6.01738C28.8127 6.30456 28.8919 6.32261 29.1529 6.46399C29.2293 6.50594 29.3056 6.54789 29.3843 6.5911C29.4673 6.63586 29.5503 6.68062 29.6358 6.72673C29.8095 6.82199 29.983 6.91741 30.1565 7.01297C30.2011 7.03742 30.2456 7.06188 30.2915 7.08707C30.8446 7.39164 31.3881 7.71266 31.9319 8.0335C32.2773 8.23663 32.6206 8.43505 32.9826 8.60722C33.058 8.53181 33.1334 8.4564 33.2111 8.37871C32.5354 7.95707 31.852 7.55291 31.1593 7.15996C31.0254 7.08377 30.8915 7.00753 30.7576 6.93129C30.625 6.85583 30.4922 6.78057 30.3595 6.70531C30.1687 6.59689 29.9787 6.48721 29.789 6.37681C29.7402 6.34854 29.6914 6.32026 29.6411 6.29112C29.5472 6.23664 29.4534 6.1819 29.3598 6.12687C29.049 5.93204 29.049 5.93204 28.717 6.01738ZM16.3629 8.5977C15.8899 9.0726 15.4836 9.59506 15.0822 10.1307C15.0197 10.2126 14.9571 10.2945 14.8945 10.3764C14.58 10.7483 14.58 10.7483 14.4729 11.1971C15.9413 11.4795 17.3921 11.7303 18.8908 11.7303C18.8908 10.021 18.8908 8.31168 18.8908 6.55058C18.1966 6.55058 16.8463 8.12245 16.3629 8.5977ZM22.3947 6.55058C22.596 6.80849 22.7957 7.0311 23.047 7.24089C23.4619 7.59348 23.8184 8.00101 24.1816 8.40537C24.3433 8.57841 24.5124 8.74443 24.6799 8.91191C24.6799 8.3589 24.6799 7.80589 24.6799 7.23613C23.5643 6.79338 23.5643 6.79338 22.3947 6.55058ZM11.3498 8.98808C11.2754 9.04523 11.201 9.10237 11.1243 9.16125C10.8498 9.37182 10.8498 9.37182 10.5881 9.59746C10.5881 9.64773 10.5881 9.698 10.5881 9.7498C11.7644 10.442 11.7644 10.442 13.0238 10.7196C13.2131 10.6511 13.2612 10.5841 13.3696 10.4166C13.4032 10.3658 13.4369 10.3149 13.4717 10.2625C13.5067 10.208 13.5417 10.1535 13.5778 10.0973C13.6524 9.98522 13.7272 9.87324 13.8022 9.7614C13.8386 9.7069 13.8751 9.65239 13.9127 9.59623C14.2779 9.06121 14.7102 8.58023 15.1465 8.10288C15.2952 7.93881 15.4389 7.7716 15.5821 7.60271C15.809 7.34079 16.0571 7.1173 16.3239 6.89663C16.4711 6.77257 16.4711 6.77257 16.6057 6.55058C14.8264 6.55058 12.6933 7.91707 11.3498 8.98808ZM20.1858 6.62675C20.1858 8.31091 20.1858 9.99507 20.1858 11.7303C21.5155 11.6639 21.5155 11.6639 22.828 11.5065C22.9171 11.4936 23.0062 11.4807 23.098 11.4674C23.58 11.396 24.0534 11.3097 24.5275 11.1971C24.1931 9.65729 22.1354 7.99855 20.9475 7.08378C20.8875 7.03655 20.8275 6.98933 20.7657 6.94066C20.5039 6.71009 20.5039 6.71009 20.1858 6.62675ZM26.9603 7.0457C26.8765 7.09872 26.8765 7.09872 26.791 7.15281C26.7479 7.18031 26.7048 7.2078 26.6604 7.23613C26.9121 7.44617 27.1623 7.61919 27.4495 7.77707C27.5276 7.82033 27.6057 7.86358 27.6861 7.90815C27.8099 7.97612 27.8099 7.97612 27.9362 8.04545C28.5168 8.36686 29.0943 8.69133 29.6644 9.03093C29.7665 9.0907 29.8687 9.15042 29.9709 9.21005C30.1389 9.30815 30.303 9.40883 30.4672 9.51355C30.7218 9.66537 30.7218 9.66537 31.0022 9.7498C31.2452 9.666 31.4222 9.54084 31.6115 9.36894C31.3884 9.1947 31.1591 9.04903 30.9135 8.90834C30.8352 8.86332 30.7569 8.81831 30.6762 8.77193C30.5921 8.72386 30.508 8.67579 30.4213 8.62626C30.289 8.55034 30.1567 8.47441 30.0244 8.39846C29.9327 8.34584 29.841 8.29325 29.7493 8.24069C29.4183 8.05088 29.0879 7.85995 28.7578 7.66846C28.6662 7.61542 28.5747 7.56238 28.4832 7.50935C28.3075 7.40758 28.132 7.30564 27.9564 7.20362C27.8774 7.15789 27.7984 7.11216 27.7169 7.06504C27.647 7.02444 27.577 6.98385 27.5049 6.94202C27.2507 6.80334 27.1986 6.89438 26.9603 7.0457ZM25.9748 8.45488C25.9748 10.0888 25.9748 11.7227 25.9748 13.406C26.9551 13.9716 26.9551 13.9716 27.9553 14.5486C28.1577 14.6662 28.36 14.7837 28.5685 14.9048C28.6498 14.952 28.731 14.9992 28.8147 15.0478C28.9749 15.1408 29.135 15.2341 29.295 15.3275C29.3742 15.3734 29.4534 15.4193 29.535 15.4666C29.6033 15.5064 29.6717 15.5462 29.7421 15.5872C29.93 15.6881 30.1182 15.766 30.3166 15.8435C30.3467 15.2112 30.3697 14.5792 30.3837 13.9464C30.3904 13.6524 30.3995 13.3589 30.4143 13.0652C30.5281 11.8453 30.5281 11.8453 30.2017 10.7182C29.9075 10.4456 29.5685 10.3124 29.1913 10.19C28.9354 10.1004 28.725 9.96729 28.4941 9.82508C28.332 9.73169 28.1698 9.63836 28.0077 9.54509C27.8445 9.45118 27.6813 9.35726 27.5182 9.26331C27.4399 9.2183 27.3615 9.1733 27.2809 9.12692C27.1143 9.03043 26.9483 8.93293 26.7828 8.83466C26.7005 8.78582 26.6181 8.73698 26.5333 8.68667C26.459 8.6422 26.3846 8.59774 26.308 8.55193C26.139 8.44287 26.139 8.44287 25.9748 8.45488ZM35.3466 8.59554C35.0065 8.95543 35.1051 9.55848 35.1154 10.0259C35.1161 10.2003 35.1157 10.3747 35.1153 10.5491C35.1154 10.6574 35.1163 10.7656 35.1181 10.8739C35.1214 11.1065 35.1136 11.2788 35.0393 11.5018C34.8657 11.5797 34.8657 11.5797 34.6584 11.6541C34.5417 11.7188 34.4262 11.7858 34.3121 11.8549C34.2477 11.8926 34.1832 11.9303 34.1169 11.969C33.9833 12.0476 33.8503 12.1274 33.7182 12.2083C33.2507 12.4778 32.9793 12.53 32.4494 12.4158C32.3753 12.1934 32.3586 12.0308 32.3491 11.7984C32.3444 11.6861 32.3444 11.6861 32.3395 11.5715C32.3365 11.4935 32.3335 11.4155 32.3304 11.3351C32.3255 11.2168 32.3255 11.2168 32.3204 11.096C32.3124 10.9012 32.3046 10.7064 32.2971 10.5115C32.0335 10.6067 31.8129 10.695 31.6115 10.8924C31.5672 11.1149 31.5672 11.1149 31.5769 11.3728C31.577 11.4719 31.577 11.571 31.577 11.6732C31.5786 11.7814 31.5802 11.8896 31.5818 11.9978C31.5823 12.1084 31.5828 12.2191 31.5831 12.3298C31.5842 12.621 31.5872 12.9121 31.5906 13.2032C31.5937 13.5004 31.5951 13.7976 31.5967 14.0947C31.5999 14.6777 31.6051 15.2606 31.6115 15.8435C32.2067 15.5502 32.2067 15.5502 32.7859 15.227C32.8581 15.1846 32.9302 15.1422 33.0045 15.0985C33.0774 15.0553 33.1503 15.0121 33.2254 14.9676C34.1277 14.434 35.0404 13.9221 35.9533 13.406C35.9533 11.747 35.9533 10.088 35.9533 8.37871C35.7307 8.37871 35.5354 8.4894 35.3466 8.59554ZM33.7443 9.59746C33.567 9.7413 33.567 9.7413 33.5771 9.98129C33.5789 10.0714 33.5807 10.1616 33.5825 10.2544C33.5839 10.345 33.5852 10.4355 33.5866 10.5288C33.5884 10.5985 33.5902 10.6682 33.592 10.74C33.6925 10.6898 33.7931 10.6395 33.8967 10.5877C33.8967 10.2609 33.8967 9.93414 33.8967 9.59746C33.8464 9.59746 33.7961 9.59746 33.7443 9.59746ZM9.52169 10.6639C7.61283 12.9864 6.2463 15.8369 6.2463 18.8904C7.70423 18.8904 9.16216 18.8904 10.6643 18.8904C10.7492 18.7206 10.7561 18.6122 10.7678 18.4236C10.9175 16.3098 11.3672 14.1766 12.3403 12.2778C12.432 12.107 12.432 12.107 12.4162 11.8826C12.3745 11.8673 12.3329 11.8521 12.2899 11.8363C11.3442 11.488 10.4258 11.1094 9.52169 10.6639ZM13.7111 12.3396C12.6242 14.3648 12.0354 16.592 12.0354 18.8904C14.2977 18.8904 16.56 18.8904 18.8908 18.8904C18.8908 16.9549 18.8908 15.0194 18.8908 13.0252C17.6843 12.9121 17.6843 12.9121 16.4533 12.7967C16.0411 12.7363 15.6376 12.6753 15.2298 12.5967C15.0512 12.5639 14.8726 12.5312 14.6939 12.4985C14.5762 12.4766 14.5762 12.4766 14.4562 12.4541C14.2084 12.4093 13.9608 12.3723 13.7111 12.3396ZM24.0286 12.5506C22.7402 12.7838 21.5026 12.8977 20.1858 13.0252C20.1858 14.9607 20.1858 16.8962 20.1858 18.8904C22.4481 18.8904 24.7104 18.8904 27.0412 18.8904C26.9374 17.5118 26.9374 17.5118 26.6984 16.172C26.6822 16.0989 26.666 16.0258 26.6494 15.9505C26.5465 15.3958 26.5465 15.3958 26.2079 14.974C26.1196 14.9259 26.1196 14.9259 26.0296 14.8768C25.9654 14.841 25.9013 14.8052 25.8353 14.7684C25.7682 14.732 25.7011 14.6956 25.632 14.6581C25.4993 14.5855 25.3667 14.5124 25.2345 14.4388C25.1462 14.3909 25.1462 14.3909 25.0561 14.342C24.9084 14.2439 24.9084 14.2439 24.7561 14.0154C24.7318 13.8496 24.7318 13.8496 24.7245 13.6599C24.7201 13.5579 24.7201 13.5579 24.7156 13.4538C24.7132 13.3831 24.7109 13.3123 24.7085 13.2394C24.704 13.132 24.704 13.132 24.6995 13.0224C24.6924 12.8456 24.6858 12.6688 24.6799 12.492C24.4423 12.492 24.2581 12.5073 24.0286 12.5506ZM28.0315 16.0721C28.1099 17.0137 28.2236 17.9522 28.3361 18.8904C29.7941 18.8904 31.252 18.8904 32.7541 18.8904C32.758 18.1899 32.758 18.1899 32.6827 17.5146C32.6694 17.432 32.6562 17.3494 32.6425 17.2643C32.6115 17.0652 32.6115 17.0652 32.5256 16.91C32.2106 16.9929 31.9647 17.1223 31.6925 17.2956C31.1509 17.622 31.1509 17.622 30.7736 17.5955C30.5977 17.5134 30.5977 17.5134 30.3978 17.4009C30.3237 17.3593 30.2496 17.3177 30.1732 17.2749C29.688 16.9961 29.2053 16.713 28.7232 16.4288C28.6448 16.3828 28.5663 16.3367 28.4855 16.2893C28.4147 16.2475 28.3438 16.2057 28.2708 16.1627C28.1276 16.0659 28.1276 16.0659 28.0315 16.0721ZM6.2463 20.1092C6.2463 20.1343 6.2463 20.1594 6.2463 20.1853C6.29148 20.1884 6.33666 20.1914 6.38321 20.1945C8.07489 20.313 9.38817 20.716 10.8166 21.6326C10.8061 21.393 10.7948 21.1533 10.7833 20.9137C10.7803 20.8454 10.7773 20.777 10.7742 20.7065C10.771 20.6414 10.7678 20.5764 10.7645 20.5094C10.7604 20.419 10.7604 20.419 10.7561 20.3268C10.7552 20.1843 10.7552 20.1843 10.6643 20.1092C10.5264 20.102 10.3882 20.1002 10.2501 20.1005C10.1616 20.1005 10.0732 20.1005 9.98205 20.1005C9.8858 20.1009 9.78956 20.1013 9.6904 20.1017C9.54347 20.1019 9.54347 20.1019 9.39357 20.1021C9.13272 20.1024 8.87188 20.1031 8.61103 20.1039C8.34503 20.1047 8.07903 20.1051 7.81303 20.1055C7.29078 20.1063 6.76854 20.1076 6.2463 20.1092ZM12.0354 20.1092C12.0354 20.7659 12.0475 21.3402 12.1591 21.9754C12.1726 22.0535 12.1861 22.1317 12.1999 22.2122C12.4799 23.76 12.9695 25.2713 13.7111 26.66C14.0197 26.6255 14.3222 26.5869 14.6255 26.5204C16.0319 26.2148 17.4599 26.1121 18.8908 25.9744C18.8908 24.0389 18.8908 22.1034 18.8908 20.1092C16.6285 20.1092 14.3662 20.1092 12.0354 20.1092ZM20.1858 20.1092C20.1858 22.0447 20.1858 23.9802 20.1858 25.9744C21.1409 26.075 22.0961 26.1755 23.0803 26.2791C24.3604 26.5171 24.3604 26.5171 24.8903 26.6385C25.079 26.6623 25.1905 26.6591 25.3654 26.5838C25.4627 26.4574 25.4627 26.4574 25.5291 26.294C25.5567 26.2329 25.5843 26.1719 25.6128 26.109C25.6411 26.0426 25.6695 25.9762 25.6987 25.9078C25.7286 25.8393 25.7584 25.7708 25.7892 25.7003C26.5541 23.907 26.9119 22.0493 27.0412 20.1092C24.7789 20.1092 22.5166 20.1092 20.1858 20.1092ZM28.3361 20.1092C28.2953 20.4595 28.2544 20.8099 28.2124 21.1708C27.9785 23.0449 27.5395 24.8667 26.7505 26.5878C26.6259 26.8419 26.6259 26.8419 26.5842 27.117C26.6259 27.1323 26.6675 27.1475 26.7105 27.1633C27.6562 27.5116 28.5746 27.8902 29.4787 28.3357C31.1863 26.3375 32.2381 24.064 32.6779 21.4803C32.6932 21.3949 32.7084 21.3096 32.7241 21.2217C32.7644 20.8529 32.7541 20.4802 32.7541 20.1092C31.2962 20.1092 29.8383 20.1092 28.3361 20.1092ZM3.02952 23.1447C2.0245 24.365 1.70745 25.7251 1.82833 27.2693C1.92507 27.9244 2.19146 28.524 2.51388 29.0975C2.71714 28.9137 2.84168 28.7138 2.98043 28.4786C3.45219 27.7305 4.03946 27.2538 4.79903 26.8123C4.76143 26.7459 4.72382 26.6795 4.68507 26.6112C4.2284 25.7755 4.06297 25.076 4.33665 24.1329C4.59528 23.4504 5.02826 23.0009 5.67769 22.6797C6.4259 22.3707 7.1331 22.3707 7.88132 22.6797C8.53074 23.0009 8.96372 23.4504 9.22236 24.1329C9.44335 24.8944 9.4205 25.5357 9.0599 26.2458C8.9973 26.3567 8.9973 26.3567 8.93344 26.4698C8.81879 26.6583 8.81879 26.6583 8.83614 26.8885C9.0006 27.0115 9.0006 27.0115 9.21224 27.1265C9.87911 27.5354 10.3452 28.0165 10.7184 28.7041C10.8127 28.8623 10.9093 28.9743 11.0451 29.0975C11.1317 28.9217 11.2172 28.7455 11.3022 28.569C11.3264 28.5203 11.3505 28.4715 11.3754 28.4213C11.8894 27.345 11.908 25.969 11.526 24.8467C10.9638 23.4781 10.0694 22.5072 8.72783 21.8659C6.73213 21.0434 4.49678 21.5817 3.02952 23.1447ZM5.76546 24.1606C5.5474 24.4402 5.41702 24.7019 5.40841 25.0603C5.48277 25.4752 5.63649 25.8304 5.94161 26.1268C6.32491 26.3914 6.7088 26.4284 7.16036 26.3553C7.50514 26.2224 7.75799 26.0308 7.9554 25.7173C8.12378 25.3267 8.20164 25.016 8.07918 24.6033C7.9172 24.229 7.66304 23.9708 7.3127 23.7654C6.71216 23.5824 6.20185 23.701 5.76546 24.1606ZM20.1858 27.2693C20.1858 28.9535 20.1858 30.6377 20.1858 32.3728C20.541 32.2308 20.7673 32.0716 21.0474 31.8254C21.0914 31.7873 21.1354 31.7492 21.1808 31.71C21.2679 31.6345 21.3549 31.5589 21.4416 31.483C21.5333 31.4031 21.6261 31.3245 21.7193 31.2463C22.6822 30.4335 23.4914 29.5116 24.2229 28.4881C24.2544 28.4447 24.2858 28.4013 24.3183 28.3566C24.4615 28.1528 24.5275 28.0577 24.5275 27.8025C23.0894 27.5239 21.6549 27.2693 20.1858 27.2693ZM15.644 27.574C15.5705 27.5867 15.497 27.5993 15.4213 27.6123C15.0893 27.6725 14.7803 27.7334 14.4729 27.8787C14.5953 28.2674 14.8311 28.5563 15.0775 28.8737C15.1217 28.931 15.1659 28.9883 15.2115 29.0473C15.6011 29.5466 16.0136 30.0129 16.4533 30.4685C16.514 30.5332 16.5747 30.5978 16.6372 30.6643C17.2909 31.3436 18.0414 31.9127 18.8147 32.449C18.8398 32.449 18.8649 32.449 18.8908 32.449C18.8908 30.7397 18.8908 29.0304 18.8908 27.2693C17.8002 27.2693 16.7181 27.3881 15.644 27.574ZM4.26583 28.7928C3.9569 29.1807 3.55612 29.7209 3.5904 30.2412C3.78931 30.6964 4.52081 30.9496 4.95138 31.1398C6.07774 31.5799 7.40861 31.6307 8.53841 31.1645C9.05611 30.9315 9.5456 30.6878 9.97872 30.3162C9.919 29.5597 9.45925 28.9102 8.91231 28.4119C7.41306 27.3202 5.55747 27.433 4.26583 28.7928ZM12.8733 28.2596C12.6743 28.5785 12.5063 28.9084 12.34 29.245C12.3139 29.2976 12.2878 29.3502 12.2609 29.4044C12.2098 29.5073 12.1587 29.6103 12.1077 29.7133C12.0079 29.9146 11.9074 30.1154 11.8068 30.3162C13.0976 31.3251 14.7574 32.1461 16.3772 32.449C16.4526 32.4239 16.528 32.3987 16.6057 32.3728C16.3406 32.1003 16.0732 31.8369 15.7821 31.5921C14.7877 30.7275 13.995 29.6183 13.3089 28.5003C13.1921 28.3244 13.1921 28.3244 13.0089 28.2736C12.9642 28.2689 12.9194 28.2643 12.8733 28.2596ZM25.8986 28.2596C25.7617 28.4377 25.6393 28.6139 25.5178 28.8023C24.6326 30.1281 23.6121 31.3378 22.3947 32.3728C22.6406 32.4548 22.6929 32.447 22.9306 32.3779C22.9916 32.3602 23.0525 32.3425 23.1153 32.3243C23.2134 32.2941 23.2134 32.2941 23.3136 32.2633C23.3814 32.2426 23.4493 32.2219 23.5192 32.2005C25.1614 31.6821 26.6133 30.8527 27.9553 29.783C28.0229 29.7302 28.0229 29.7302 28.0918 29.6763C28.2016 29.5885 28.3074 29.4958 28.4123 29.4021C28.4123 29.3519 28.4123 29.3016 28.4123 29.2498C27.8474 28.9514 27.2824 28.6796 26.6842 28.4548C26.6322 28.4351 26.5802 28.4154 26.5266 28.3951C26.3064 28.3144 26.1351 28.2596 25.8986 28.2596Z" fill="#004539"/>
<path d="M12.2635 34.0488C12.4387 34.294 12.458 34.5154 12.4158 34.8105C12.254 35.0295 12.254 35.0295 12.035 35.1913C11.7827 35.2151 11.7827 35.2151 11.578 35.1913C11.578 35.2416 11.578 35.2919 11.578 35.3437C11.6401 35.363 11.7023 35.3824 11.7663 35.4023C12.0181 35.4901 12.2571 35.5911 12.5005 35.699C15.7863 37.1438 19.5648 37.5255 23.0799 36.7909C23.1489 36.7767 23.2178 36.7624 23.2889 36.7477C25.4757 36.2799 27.5436 35.364 29.4022 34.1249C29.7345 34.0819 29.8819 34.0874 30.1591 34.282C30.3162 34.5058 30.3162 34.5058 30.3638 34.7724C30.2935 35.1661 30.0556 35.334 29.7378 35.5609C29.4756 35.7209 29.212 35.8773 28.9451 36.0292C28.8889 36.0613 28.8327 36.0933 28.7748 36.1264C26.2629 37.5404 23.3385 38.467 20.4371 38.4822C20.3684 38.4827 20.2997 38.4833 20.2289 38.4838C17.34 38.5013 17.34 38.5013 16.0721 38.2382C15.9586 38.2149 15.9586 38.2149 15.8427 38.1911C14.2847 37.8616 12.7932 37.3866 11.3494 36.7148C11.3518 36.774 11.3542 36.8332 11.3566 36.8942C11.3494 37.0956 11.3494 37.0956 11.2352 37.2718C11.0198 37.4171 10.8531 37.4395 10.5952 37.4482C10.2145 37.3341 9.97198 36.9211 9.75608 36.6071C9.70301 36.5303 9.64993 36.4535 9.59525 36.3744C9.541 36.295 9.48675 36.2157 9.43086 36.134C9.37572 36.054 9.32059 35.9741 9.26379 35.8918C8.64259 34.9903 8.64259 34.9903 8.68342 34.582C8.75007 34.3725 8.75007 34.3725 8.91194 34.2011C9.4415 34.0362 10.0141 34.0071 10.5639 33.9631C10.6396 33.9565 10.7152 33.9499 10.7932 33.9431C11.9861 33.8433 11.9861 33.8433 12.2635 34.0488Z" fill="#004539"/>
<path d="M25.5177 1.44732C25.5114 1.3672 25.5051 1.28708 25.4987 1.20453C25.5177 0.91412 25.5177 0.91412 25.6272 0.690365C25.8707 0.494363 26.0202 0.457821 26.3294 0.479404C26.7053 0.592809 26.8914 0.915529 27.1173 1.21881C27.2005 1.3249 27.2839 1.43081 27.3675 1.53659C28.3361 2.77328 28.3361 2.77328 28.3361 3.2088C28.2383 3.48974 28.1244 3.56773 27.879 3.73248C27.6521 3.79504 27.6521 3.79504 27.4021 3.82888C27.2647 3.84803 27.2647 3.84803 27.1246 3.86757C27.0295 3.87954 26.9344 3.89152 26.8364 3.90387C26.696 3.9236 26.696 3.9236 26.5527 3.94374C25.1322 4.13465 25.1322 4.13465 24.7465 3.88006C24.5654 3.59643 24.5446 3.45383 24.6036 3.1231C24.797 2.91601 24.797 2.91601 24.9845 2.74224C20.7267 1.41169 16.0742 1.58301 12.0283 3.54291C11.7139 3.69118 11.477 3.77623 11.1212 3.73248C10.8863 3.59155 10.7678 3.49928 10.6689 3.24212C10.6628 2.99193 10.6825 2.88056 10.8165 2.66607C12.4125 1.45313 14.7628 1.01812 16.6818 0.685604C16.7459 0.67441 16.8101 0.663217 16.8762 0.651684C19.6868 0.191819 22.8387 0.526894 25.5177 1.44732Z" fill="#004539"/>
<path d="M4.49398 8.68375C4.72611 8.84226 4.85551 8.96925 4.91247 9.25013C4.92985 9.47933 4.93551 9.70597 4.93673 9.93582C4.93848 10.0174 4.94023 10.0991 4.94203 10.1832C4.94521 10.3455 4.94755 10.5079 4.94901 10.6703C4.95072 10.8601 4.95463 11.0496 4.95994 11.2394C4.9744 11.9999 4.9744 11.9999 4.79867 12.2638C4.51399 12.4536 4.37414 12.4511 4.03695 12.4162C3.77878 12.2534 3.67698 12.1741 3.57992 11.883C2.37212 14.648 1.84092 17.3128 1.92032 20.3343C1.92628 20.5794 1.92991 20.8243 1.9333 21.0694C1.93598 21.1436 1.93867 21.2178 1.94143 21.2942C1.94537 21.6488 1.94466 21.8075 1.72617 22.0987C1.52328 22.2423 1.52328 22.2423 1.29477 22.2852C1.01605 22.2329 0.887119 22.1336 0.685391 21.9377C-0.415051 19.7368 0.814111 15.4296 1.51852 13.2826C1.75242 12.5882 2.02675 11.9257 2.36117 11.2736C2.31345 11.2652 2.26573 11.2569 2.21656 11.2483C2.12319 11.2302 2.12319 11.2302 2.02792 11.2117C1.96606 11.2002 1.9042 11.1887 1.84047 11.1769C1.67563 11.1212 1.67563 11.1212 1.52328 10.8927C1.48243 10.4637 1.48243 10.4637 1.52328 10.2834C1.75059 10.0219 2.00469 9.85933 2.30226 9.68499C2.34711 9.65855 2.39197 9.63211 2.43819 9.60487C2.58048 9.52115 2.72314 9.43808 2.86581 9.35501C2.96224 9.29837 3.05865 9.24169 3.15503 9.18496C4.08935 8.63614 4.08935 8.63614 4.49398 8.68375Z" fill="#004539"/>
<path d="M37.7812 15.2343C38.0796 15.4228 38.1227 15.6439 38.2008 15.9764C38.8114 18.7863 38.8603 22.9022 37.5527 25.5175C37.6076 25.5002 37.6626 25.483 37.7193 25.4651C37.9957 25.4344 38.0958 25.5045 38.3144 25.6699C38.4959 25.9422 38.5161 26.0344 38.4667 26.3554C38.1126 26.8866 37.574 27.2458 37.071 27.6279C36.8981 27.7614 36.7309 27.9017 36.5624 28.0407C36.3124 28.2333 36.1278 28.3507 35.8007 28.3359C35.596 28.2692 35.596 28.2692 35.4198 28.1074C35.1794 27.5906 35.1095 27.0133 35.0247 26.4554C35.0112 26.3715 34.9977 26.2876 34.9838 26.2011C34.8083 25.0787 34.8083 25.0787 35.039 24.7558C35.2776 24.5631 35.5113 24.5972 35.8007 24.6204C36.0251 24.7076 36.1203 24.8688 36.2577 25.0605C36.729 23.5384 37.1016 21.967 37.1111 20.3655C37.1116 20.305 37.1121 20.2445 37.1127 20.1822C37.1139 19.9881 37.1144 19.794 37.1147 19.5999C37.1148 19.5337 37.115 19.4675 37.1152 19.3993C37.1161 18.4925 37.0774 17.6155 36.9171 16.7209C36.8418 16.2751 36.7559 15.7383 36.9814 15.3343C37.2528 15.1918 37.4812 15.1751 37.7812 15.2343Z" fill="#004539"/>
</g>
<defs>
<clipPath id="clip0_129_4482">
<rect width="39" height="39" fill="white"/>
</clipPath>
</defs>
</svg>
