<svg width="34" height="35" viewBox="0 0 34 35" fill="none" xmlns="http://www.w3.org/2000/svg">
<path d="M17 0C7.62021 0 0 7.85893 0 17.5C0 27.1411 7.6344 35 17 35C26.3656 35 34 27.1411 34 17.5C34 7.85893 26.3656 0 17 0ZM29.1185 19.9687C27.5008 19.3552 25.9967 18.5079 24.606 17.4124C24.081 17.0033 23.4282 17.6753 23.5701 18.2304C23.6553 18.581 23.6553 18.8731 23.5985 19.1507C22.889 18.5371 22.1653 17.8652 21.3848 17.4416C20.9591 17.2078 20.5192 17.091 20.1077 17.4416C18.6177 18.6832 20.7746 20.553 20.7888 21.8093C20.7888 22.5543 19.7955 22.7588 19.4407 23.3869C19.1143 23.9712 19.1143 24.6724 19.086 25.3151C19.0008 27.068 18.2913 28.558 17.1135 29.7558C16.7446 29.23 16.4324 28.6749 16.2621 28.0467C15.9641 27.0242 16.0634 25.9286 15.9783 24.8769C15.8648 23.6206 15.4958 22.3644 14.5309 21.5171C14.1336 21.1665 13.6795 20.9474 13.1686 20.8744C12.8848 20.8306 12.4307 20.9328 12.1895 20.8159C11.8631 20.6553 11.6928 20.1002 11.5793 19.7496C11.3239 18.8731 11.3381 17.836 12.1469 17.2663C12.8706 16.7696 13.8639 16.8427 14.687 16.9449C16.0634 17.1202 17.4967 17.5146 18.8447 16.9741C19.9941 16.5067 20.5618 15.5426 19.8097 14.374C19.0718 13.22 17.7095 12.8401 16.4892 12.5188C15.7796 12.3289 14.1619 11.9783 14.8573 10.9704C15.3113 10.3276 16.7446 10.0939 17.4541 9.87479C21.4132 8.63314 25.6277 7.90275 29.7571 8.51628C29.7997 8.51628 29.828 8.51628 29.8564 8.51628C30.9207 10.1231 31.687 11.9345 32.1269 13.8773C31.1619 14.0964 30.3957 14.7976 29.9558 15.7617C29.3598 17.091 29.53 18.6102 29.0901 19.9687H29.1185ZM3.24959 9.97705C3.87397 11.1164 4.399 12.3143 4.76795 13.5705C4.9808 14.3009 5.37814 15.3381 4.95243 16.0684C4.71119 16.4629 3.90234 16.7112 3.5334 16.9741C2.86645 17.4416 2.02922 18.3472 1.53256 19.3552C1.4616 18.7563 1.41903 18.1427 1.41903 17.5146C1.41903 14.7976 2.08599 12.2266 3.24959 9.99165V9.97705ZM2.29885 22.7588C2.85227 23.0509 3.49082 23.2408 4.01586 23.4015C5.17947 23.7375 6.52754 23.942 7.37896 24.9061C8.24457 25.8994 8.23039 27.8422 8.57096 29.0985C8.79801 29.9019 9.06762 30.6907 9.36561 31.4795C6.08765 29.5659 3.56178 26.4837 2.29885 22.7734V22.7588ZM24.1093 31.7571C24.1519 30.3694 24.677 29.0547 25.6703 28.076C26.8197 26.9366 28.3806 26.659 29.9132 26.4691C28.4516 28.7041 26.4508 30.5301 24.1093 31.7717V31.7571ZM30.8214 24.8915C28.6219 25.169 26.3514 25.3881 24.677 27.0388C23.3005 28.4119 22.5058 30.4424 22.7045 32.4144C20.9307 33.1302 19.015 33.5392 17 33.5392C14.985 33.5392 13.0267 33.1302 11.2387 32.3852C11.2387 32.356 11.2387 32.3268 11.2245 32.2976C10.6285 30.9391 10.1319 29.5367 9.77712 28.076C9.47913 26.8489 9.43655 25.4174 8.75542 24.3364C8.23038 23.5038 7.35058 22.9633 6.47078 22.5981C5.52003 22.2183 3.09349 22.0722 2.71035 21.0497C2.27046 19.8957 3.803 18.4641 4.65442 17.9382C5.40651 17.4854 6.22956 17.0618 6.52755 16.1415C6.86812 15.0459 6.30049 13.5998 5.95993 12.5626C5.53422 11.2771 4.9808 10.0501 4.32805 8.88147C4.2571 8.75 4.14358 8.66235 4.04425 8.60392C6.83974 4.28005 11.6077 1.43155 17.0142 1.43155C21.6686 1.43155 25.8548 3.56427 28.707 6.90943C25.3155 6.63189 21.924 7.09933 18.6461 8.00501C17.1845 8.39942 15.0133 8.75 13.8781 9.8894C12.7145 11.0726 13.1402 12.621 14.5025 13.3368C15.1836 13.6874 15.9215 13.8335 16.6453 14.038C17.1987 14.1987 19.5968 15.1336 18.0217 15.7033C17.2128 15.9954 16.1202 15.674 15.3114 15.5572C14.5451 15.4403 13.7646 15.3527 12.9983 15.4549C11.5225 15.6594 10.3306 16.5943 10.0751 18.1573C9.89066 19.3698 10.288 21.2834 11.3523 22.0138C12.076 22.5104 12.97 22.0576 13.6511 22.6273C14.5167 23.3431 14.5735 24.687 14.616 25.7095C14.7012 27.9445 15.1694 29.5952 16.5601 31.3481C16.8297 31.6841 17.2838 31.5672 17.5676 31.3481C18.7454 30.3986 19.611 29.1423 20.1077 27.6962C20.3489 26.9658 20.4766 26.2208 20.5192 25.4612C20.5334 25.1398 20.4908 24.7746 20.576 24.4679C20.7462 23.9566 20.9875 23.942 21.3706 23.6498C22.3639 22.8902 22.4207 21.7654 21.9382 20.6407C21.8247 20.3777 21.6828 20.1294 21.5409 19.8811C21.399 19.6327 21.2855 19.3844 21.1861 19.1068C21.9382 19.7204 22.7187 20.3193 23.4992 20.9182C23.8255 21.1665 24.2654 20.9474 24.4641 20.6553C24.7337 20.2755 24.904 19.8664 24.9891 19.4428C26.3372 20.3485 27.7846 21.0643 29.3314 21.5902C29.6152 21.6924 29.9983 21.5317 30.126 21.2542C30.5801 20.3193 30.7362 19.3552 30.8639 18.3326C30.9916 17.2225 31.2329 15.5864 32.4249 15.2796C32.5242 16.01 32.5951 16.7404 32.5951 17.4854C32.5951 20.144 31.9566 22.6565 30.8356 24.8769L30.8214 24.8915ZM15.3255 6.06219C15.8364 5.58013 16.4466 4.70367 16.0776 3.97329C15.7512 3.31594 15.0275 3.25751 14.389 3.27212C13.8497 3.27212 13.3247 3.30134 12.7855 3.35977C11.1962 3.54967 9.77713 4.1778 8.51419 5.17112C8.5 5.18573 8.48582 5.21494 8.45744 5.22955C8.42906 5.25876 8.40068 5.25876 8.3723 5.28798C7.83307 5.81386 7.43573 6.55885 7.36478 7.33306C7.3364 7.72746 7.47831 8.10726 7.81888 8.31177C8.20201 8.54549 8.69866 8.44324 9.11018 8.39942C10.6427 8.22412 12.2037 7.74207 13.6227 7.12855C14.2471 6.86561 14.8431 6.54424 15.3255 6.06219ZM10.4299 6.64649C10.0609 6.74875 9.69199 6.83639 9.32305 6.89482C9.18114 6.92404 9.05342 6.93865 8.91151 6.95326V6.92404C9.01085 6.70492 9.16694 6.51503 9.33723 6.35434C10.2454 5.66778 11.2245 5.1273 12.3598 4.90818C12.8139 4.82053 13.268 4.79132 13.7362 4.7621C13.9775 4.7621 14.2187 4.7621 14.4599 4.7475C14.4883 4.7475 14.5167 4.7475 14.5593 4.7475C14.5167 4.79132 14.4883 4.84975 14.4457 4.89357C14.2755 5.08347 14.0768 5.24416 13.8639 5.37563C13.4099 5.66778 12.9132 5.85768 12.4023 6.03297C11.7496 6.25209 11.0827 6.4712 10.4157 6.6611L10.4299 6.64649Z" fill="#FFA300"/>
</svg>
