<svg width="51" height="39" viewBox="0 0 51 39" fill="none" xmlns="http://www.w3.org/2000/svg">
<path d="M50.0721 37.1483H47.8374V8.55959C47.8374 7.44477 47.1177 6.46221 46.0383 6.14099L26.267 0.113372C25.7557 -0.0377907 25.2254 -0.0377907 24.733 0.113372L4.92388 6.65116C3.88229 6.99128 3.18157 7.95494 3.18157 9.05087V37.1105H0.9469C0.416636 37.1105 0 37.5262 0 38.0552C0 38.5843 0.416636 39 0.9469 39H50.0531C50.5834 39 51 38.5843 51 38.0552C51 37.5262 50.5834 37.1105 50.0531 37.1105L50.0721 37.1483ZM5.09431 9.08866C5.09431 8.80523 5.26476 8.55959 5.52989 8.48401L25.339 1.94622C25.4716 1.90843 25.6042 1.90843 25.7367 1.94622L45.508 7.97384C45.7731 8.04942 45.9625 8.29506 45.9625 8.57849V37.1671H37.7624V21.9564C37.7624 21.1439 37.0995 20.4637 36.2662 20.4637H14.8285C13.9952 20.4637 13.3323 21.125 13.3323 21.9564V37.1671H5.13219V9.08866H5.09431ZM35.8496 32.311V33.766H15.2072V32.311H35.8496ZM15.2072 30.4215V28.9666H35.8496V30.4215H15.2072ZM35.8496 27.077H15.2072V25.6221H35.8496V27.077ZM15.2072 35.6555H35.8496V37.0349H15.2072V35.6555ZM35.8496 23.7326H15.2072V22.3532H35.8496V23.7326Z" fill="#004539"/>
</svg>
