<svg width="46" height="36" viewBox="0 0 46 36" fill="none" xmlns="http://www.w3.org/2000/svg">
<path d="M11.256 27.2287C9.85315 27.2287 8.71754 28.3639 8.71754 29.7663C8.71754 31.1686 9.85315 32.3038 11.256 32.3038C12.6588 32.3038 13.7944 31.1686 13.7944 29.7663C13.7944 28.3639 12.6588 27.2287 11.256 27.2287ZM11.256 30.6344C10.7717 30.6344 10.3876 30.2504 10.3876 29.7663C10.3876 29.2821 10.7717 28.8982 11.256 28.8982C11.7403 28.8982 12.1244 29.2821 12.1244 29.7663C12.1244 30.2504 11.7403 30.6344 11.256 30.6344ZM27.0043 27.2287C25.6015 27.2287 24.4659 28.3639 24.4659 29.7663C24.4659 31.1686 25.6015 32.3038 27.0043 32.3038C28.4071 32.3038 29.5428 31.1686 29.5428 29.7663C29.5428 28.3639 28.4071 27.2287 27.0043 27.2287ZM27.0043 30.6344C26.52 30.6344 26.1359 30.2504 26.1359 29.7663C26.1359 29.2821 26.52 28.8982 27.0043 28.8982C27.4886 28.8982 27.8727 29.2821 27.8727 29.7663C27.8727 30.2504 27.4886 30.6344 27.0043 30.6344ZM36.5068 22.9382C36.5903 23.2721 36.7907 23.5726 37.0913 23.7563C37.2917 23.8898 37.5422 23.9566 37.776 23.9566C37.8762 23.9566 37.9764 23.9566 38.0766 23.9232L43.2871 22.6878C43.9885 22.5209 44.4227 21.8197 44.2557 21.1185L41.8175 10.7679C41.734 10.4341 41.5336 10.1336 41.233 9.94992C40.9324 9.76628 40.5816 9.71619 40.2476 9.78297L35.0372 11.0184C34.3357 11.1853 33.9015 11.8865 34.0685 12.5876L36.5068 22.9382ZM40.281 11.5025L42.5523 21.1352L38.0432 22.2037L35.772 12.571L40.281 11.5025ZM31.5468 22.2538C31.5468 22.0868 31.5301 21.9032 31.4967 21.7362L26.9208 1.76962C26.687 0.717863 25.7685 0 24.683 0H12.3582C11.089 0 10.0703 1.01836 10.0703 2.28715V16.4274H2.28794C1.03542 16.4274 0 17.4457 0 18.7145V28.3306C0 29.5826 1.01872 30.6177 2.28794 30.6177H5.62799C6.0288 33.3556 8.38354 35.4758 11.2393 35.4758C14.095 35.4758 16.4498 33.3556 16.8506 30.6177H21.3763C21.7771 33.3556 24.1319 35.4758 26.9876 35.4758C30.1273 35.4758 32.6824 32.9215 32.6824 29.783C32.6824 28.4975 32.2482 27.3289 31.5301 26.3773V22.2705L31.5468 22.2538ZM11.7403 2.28715C11.7403 1.95326 12.0242 1.66945 12.3582 1.66945H24.683C24.9669 1.66945 25.2174 1.86978 25.2842 2.15359L29.643 21.2688H20.725C20.558 21.2688 20.4077 21.202 20.2908 21.0851L16.2995 17.0952C15.882 16.6778 15.2807 16.4274 14.6795 16.4274H11.7236V2.28715H11.7403ZM1.67003 28.3139V18.6978C1.67003 18.3639 1.93724 18.0801 2.28794 18.0801H14.6962C14.8632 18.0801 15.0135 18.1469 15.1304 18.2638L19.1218 22.2538C19.556 22.6878 20.1238 22.9215 20.7417 22.9215H29.8935V24.8581C29.0418 24.3573 28.0731 24.0568 27.021 24.0568C24.1653 24.0568 21.8105 26.177 21.4097 28.9149H16.884C16.4832 26.177 14.1284 24.0568 11.2727 24.0568C8.41693 24.0568 6.06219 26.177 5.66139 28.9149H2.32134C1.98733 28.9149 1.70343 28.6477 1.70343 28.2972L1.67003 28.3139ZM11.256 33.7896C9.03484 33.7896 7.23122 31.9866 7.23122 29.7663C7.23122 27.5459 9.03484 25.7429 11.256 25.7429C13.4771 25.7429 15.2807 27.5459 15.2807 29.7663C15.2807 31.9866 13.4771 33.7896 11.256 33.7896ZM27.0043 33.7896C24.7832 33.7896 22.9796 31.9866 22.9796 29.7663C22.9796 27.5459 24.7832 25.7429 27.0043 25.7429C29.2255 25.7429 31.0291 27.5459 31.0291 29.7663C31.0291 31.9866 29.2255 33.7896 27.0043 33.7896ZM45.3913 25.2588L36.0726 27.4624L36.6738 30.0334C36.774 30.4841 36.5068 30.9349 36.0559 31.0351C35.9891 31.0351 35.9223 31.0518 35.8555 31.0518C35.4714 31.0518 35.1374 30.8013 35.0372 30.4007L28.0898 1.03506C27.9896 0.584307 28.2568 0.133556 28.7078 0.033389C29.1587 -0.066778 29.6096 0.200334 29.7098 0.651085L35.6551 25.8264L44.9738 23.6227C45.4247 23.5225 45.8756 23.7897 45.9758 24.2404C46.076 24.6912 45.8088 25.1419 45.3579 25.2421L45.3913 25.2588Z" fill="#FFA300"/>
</svg>
