<svg width="37" height="37" viewBox="0 0 37 37" fill="none" xmlns="http://www.w3.org/2000/svg">
<path d="M34.4543 15.8478C34.0048 15.3974 33.2143 15.3974 32.7649 15.8478L31.215 17.4008L30.0681 13.0213C31.6334 11.1732 33.0128 9.40277 34.1288 7.80315C37.6935 2.64711 37.1975 1.14068 36.5156 0.457348C34.7177 -1.34416 29.1536 2.46075 23.9615 6.9024L19.5908 5.75316L21.1407 4.20014C21.6056 3.73423 21.6056 2.97325 21.1407 2.50734L20.0557 1.42022C19.8233 1.18727 19.5288 1.06303 19.2033 1.06303C18.8778 1.06303 18.5833 1.18727 18.3509 1.42022L15.1736 4.60392L7.45511 2.58499C7.03664 2.47628 6.60267 2.60052 6.29269 2.8956L3.76638 5.42702C3.4874 5.70657 3.36341 6.09482 3.4254 6.48308C3.4874 6.87134 3.73537 7.19747 4.09185 7.3683L16.8475 13.5338C14.7551 15.6615 12.3683 18.2861 10.2604 20.8951L2.69695 20.2273C2.34048 20.1963 1.98401 20.3205 1.73603 20.5845L0.356624 21.9667C0.0776429 22.2463 -0.0463503 22.619 0.0156454 22.9917C0.0621421 23.38 0.294617 23.7061 0.635593 23.8925L6.09122 26.9053C4.9133 29.064 4.46383 30.819 5.33176 31.6731C5.64174 31.9837 6.07571 32.1235 6.58717 32.1235C7.50161 32.1235 8.72603 31.6731 10.1054 30.9121L13.1277 36.3943C13.3137 36.7205 13.6392 36.9534 14.0112 37C14.0732 37 14.1197 37 14.1817 37C14.4916 37 14.8016 36.8758 15.0186 36.6428L16.429 35.2296C16.677 34.9811 16.801 34.6239 16.77 34.2822L16.088 26.7035C18.6918 24.5913 21.3112 22.1842 23.4345 20.1031L29.5876 32.8845C29.7581 33.2417 30.0835 33.4902 30.471 33.5523C30.533 33.5523 30.6105 33.5678 30.6725 33.5678C30.998 33.5678 31.308 33.4436 31.5249 33.2106L34.0513 30.6792C34.3457 30.3841 34.4697 29.9337 34.3612 29.5144L32.3464 21.7804L35.5237 18.5967C35.9886 18.1308 35.9886 17.3698 35.5237 16.9039L34.4387 15.8168L34.4543 15.8478ZM35.4152 1.54446C36.0041 2.49181 32.2844 9.07663 23.109 18.2705C15.871 25.5232 10.2604 29.3591 7.74959 30.3686L13.4842 24.6224C13.7942 24.3118 13.7942 23.8304 13.4842 23.5198C13.1742 23.2091 12.6938 23.2091 12.3838 23.5198L6.66467 29.2504C7.6721 26.7345 11.5003 21.1126 18.7383 13.8599C27.9137 4.66604 34.4852 0.954315 35.4152 1.52893V1.54446ZM19.2188 2.77135L19.8078 3.3615L17.8549 5.31831L16.9405 5.06983L19.2343 2.77135H19.2188ZM7.26913 4.15354L22.5511 8.14482C20.9082 9.60466 19.3583 11.0645 18.0254 12.4001L5.22328 6.20354L7.26913 4.15354ZM1.78252 22.7743L2.74345 21.8114L9.129 22.386C8.27656 23.4887 7.51711 24.5758 6.88166 25.6008L1.78252 22.7898V22.7743ZM15.2046 34.2977L14.2436 35.2606L11.4383 30.1512C12.4613 29.4989 13.5307 28.7379 14.6466 27.8838L15.2201 34.2822L15.2046 34.2977ZM30.781 31.8129L24.5969 18.9849C26.1003 17.463 27.5262 15.941 28.8436 14.4501L32.8269 29.7629L30.781 31.8129ZM31.9124 20.072L31.6644 19.1402L33.6173 17.1834L34.2063 17.7736L31.9124 20.072Z" fill="#FFA300"/>
</svg>
