<svg width="17" height="35" viewBox="0 0 17 35" fill="none" xmlns="http://www.w3.org/2000/svg">
<path d="M17 2.18369C16.9995 2.76431 16.7723 3.32097 16.3683 3.73128L5.35452 14.9323C5.02115 15.2713 4.7567 15.6737 4.57628 16.1166C4.39586 16.5595 4.303 17.0342 4.303 17.5136C4.303 17.993 4.39586 18.4677 4.57628 18.9106C4.7567 19.3535 5.02115 19.7559 5.35452 20.0949L16.354 31.2886C16.7462 31.7016 16.9633 32.2548 16.9584 32.829C16.9535 33.4033 16.727 33.9525 16.3278 34.3586C15.9285 34.7646 15.3884 34.9949 14.8238 34.9999C14.2592 35.0049 13.7152 34.7842 13.3091 34.3852L2.30964 23.2003C0.830647 21.6932 4.12876e-06 19.6509 3.94261e-06 17.5216C3.75646e-06 15.3924 0.830646 13.3501 2.30964 11.843L13.3235 0.641939C13.6242 0.335901 14.0073 0.127311 14.4245 0.042494C14.8417 -0.0423233 15.2742 0.000431082 15.6675 0.165364C16.0608 0.330296 16.3973 0.610017 16.6344 0.969223C16.8716 1.32843 16.9988 1.75103 17 2.18369Z" fill="white"/>
</svg>
